<?xml version="1.0" encoding="UTF-8" standalone="no" ?>
<!DOCTYPE svg PUBLIC "-//W3C//DTD SVG 1.1//EN" "http://www.w3.org/Graphics/SVG/1.1/DTD/svg11.dtd">
<svg xmlns="http://www.w3.org/2000/svg" xmlns:xlink="http://www.w3.org/1999/xlink" version="1.1" width="1080" height="1080" viewBox="0 0 1080 1080" xml:space="preserve">
<desc>Created with Fabric.js 5.2.4</desc>
<defs>
</defs>
<rect x="0" y="0" width="100%" height="100%" fill="transparent"></rect>
<g transform="matrix(1 0 0 1 540 540)" id="0265810d-d31b-4ec2-a028-99827da1dc98"  >
<rect style="stroke: none; stroke-width: 1; stroke-dasharray: none; stroke-linecap: butt; stroke-dashoffset: 0; stroke-linejoin: miter; stroke-miterlimit: 4; fill: rgb(255,255,255); fill-rule: nonzero; opacity: 1; visibility: hidden;" vector-effect="non-scaling-stroke"  x="-540" y="-540" rx="0" ry="0" width="1080" height="1080" />
</g>
<g transform="matrix(1 0 0 1 540 540)" id="75ffff49-a95e-4b06-907d-e0203e99e563"  >
</g>
<g transform="matrix(7.86 0 0 7.86 540.14 535.85)"  >
<path style="stroke: none; stroke-width: 0; stroke-dasharray: none; stroke-linecap: butt; stroke-dashoffset: 0; stroke-linejoin: miter; stroke-miterlimit: 4; fill: rgb(216,150,50); fill-rule: evenodd; opacity: 1;" vector-effect="non-scaling-stroke"  transform=" translate(-326.38, -66.19)" d="M 300.33 7.94 C 271.72999999999996 20.330000000000002 259.21999999999997 42.61 263.90999999999997 80.87 C 268.59999999999997 119.13 304.33 133.08 337.25 130.76 C 368.43 128.56 388.96 93.82999999999998 389.8 63.11999999999999 C 390.76 28.15999999999999 354.18 -15.38000000000001 300.33000000000004 7.939999999999991 Z" stroke-linecap="round" />
</g>
<g transform="matrix(7.86 0 0 7.86 540.72 540.14)"  >
<path style="stroke: none; stroke-width: 0; stroke-dasharray: none; stroke-linecap: butt; stroke-dashoffset: 0; stroke-linejoin: miter; stroke-miterlimit: 4; fill: rgb(109,66,1); fill-rule: evenodd; opacity: 1;" vector-effect="non-scaling-stroke"  transform=" translate(-326.46, -66.73)" d="M 300.82 6.24 C 280.88 14.86 275.23 25.9 271.3 31.869999999999997 C 279.17 21.299999999999997 289.56 13.489999999999998 300.35 8.699999999999996 C 318.85 0.4699999999999953 327.85 2.139999999999996 333.8 1.4199999999999955 C 330.95 0.7799999999999955 316.04 -0.3300000000000045 300.82 6.249999999999996 Z M 263.64 76.75999999999999 C 262.99 86.38999999999999 268.22999999999996 107.21 286.27 119.26999999999998 C 302.83 130.33999999999997 326.44 135.39999999999998 343.28999999999996 130.90999999999997 C 353.72999999999996 128.12999999999997 369.99999999999994 118.36999999999998 380.21 101.82999999999997 C 386.47999999999996 91.67999999999996 389.84999999999997 74.70999999999997 389.27 68.47999999999996 C 389.28999999999996 74.88999999999996 383.15999999999997 97.00999999999996 376.46999999999997 104.71999999999997 C 357.97999999999996 126.00999999999996 338.77 130.00999999999996 322.08 127.63999999999997 C 295.18 123.81999999999998 282.11 112.85999999999997 274.47999999999996 101.56999999999996 C 269.09 93.58999999999996 265.83 87.26999999999997 263.65 76.74999999999997 Z M 347.77 4.22 C 347.77 4.22 362.01 6.2299999999999995 371.2 15.669999999999998 C 377.96999999999997 22.63 384.21 37.36 384.21 37.36 C 384.21 37.36 377.63 25.45 367.96 16.09 C 358.37 6.800000000000001 347.77 4.209999999999999 347.77 4.209999999999999 L 347.77 4.209999999999999 Z M 372.14 31.09 C 368.32 24.84 364.06 16.88 350.28 10.27 C 343.78999999999996 7.16 325.46999999999997 7.319999999999999 318.86999999999995 8.879999999999999 C 312.28 10.44 307.85999999999996 12.11 300.30999999999995 15.57 C 287.35999999999996 21.51 277.5799999999999 34.120000000000005 274.62999999999994 41.06 C 271.67999999999995 48 270.97999999999996 57.3 271.31999999999994 65.8 C 271.6599999999999 74.3 275.30999999999995 86.97 278.94999999999993 92.17999999999999 C 282.5899999999999 97.38999999999999 290.74999999999994 104.14999999999999 295.0899999999999 107.1 C 292.3399999999999 102.6 288.8399999999999 98.6 286.9299999999999 96.86 C 285.01999999999987 95.12 277.3899999999999 86.28 276.3499999999999 81.94 C 275.30999999999995 77.6 276.8699999999999 75.69 275.6599999999999 72.05 C 274.44999999999993 68.41 273.3999999999999 58.169999999999995 273.7499999999999 55.22 C 274.09999999999985 52.27 274.7899999999999 46.89 276.8699999999999 43.07 C 278.9499999999999 39.25 291.9699999999999 26.06 294.5699999999999 23.29 C 297.16999999999985 20.52 305.84999999999985 16.349999999999998 311.5699999999999 14.44 C 317.2999999999999 12.53 319.89999999999986 10.969999999999999 322.84999999999985 10.45 C 325.79999999999984 9.93 340.71999999999986 9.41 345.74999999999983 11.84 C 350.7799999999998 14.27 357.16999999999985 18.05 359.9499999999998 20.83 C 362.7299999999998 23.609999999999996 365.92999999999984 23.939999999999998 372.1299999999998 31.099999999999998 L 372.1299999999998 31.099999999999998 Z" stroke-linecap="round" />
</g>
<g transform="matrix(7.86 0 0 7.86 544.88 502.75)"  >
<path style="stroke: none; stroke-width: 0; stroke-dasharray: none; stroke-linecap: butt; stroke-dashoffset: 0; stroke-linejoin: miter; stroke-miterlimit: 4; fill: rgb(255,210,140); fill-rule: evenodd; opacity: 1;" vector-effect="non-scaling-stroke"  transform=" translate(-327, -61.97)" d="M 377.86 44.97 C 381.52000000000004 51.7 383.93 69.96 382.89 75.34 C 381.84999999999997 80.72000000000001 378.38 92.35000000000001 374.56 97.55000000000001 C 370.74 102.75000000000001 364.49 111.10000000000001 348.19 116.98000000000002 C 341.94 119.24000000000002 330.69 120.90000000000002 318.40999999999997 119.50000000000001 C 313.60999999999996 118.95000000000002 306.24999999999994 115.31000000000002 304.85999999999996 114.45000000000002 C 312.54999999999995 116.39000000000001 317.65 116.81000000000002 324.40999999999997 116.81000000000002 C 331.16999999999996 116.81000000000002 346.16999999999996 115.21000000000002 357.9 107.44000000000001 C 372.09 98.04 376.62 85.32000000000001 377.83 78.20000000000002 C 379.03999999999996 71.08000000000003 380 54.46000000000002 377.84999999999997 44.97000000000002 Z M 308.61 6.53 C 299.76 9.91 289.92 15.09 279.75 25.040000000000003 C 274.39 30.290000000000003 270.87 42.06 270.87 42.06 C 270.87 42.06 277.12 30.090000000000003 282.32 25.14 C 287.53 20.19 299.15999999999997 12.040000000000001 310.84 7.98 C 320.04999999999995 4.7700000000000005 331 4.58 337.76 5.36 C 328.13 3.41 317.46 3.1500000000000004 308.61 6.53 Z" stroke-linecap="round" />
</g>
<g transform="matrix(7.86 0 0 7.86 572.6 549.07)"  >
<path style="stroke: none; stroke-width: 0; stroke-dasharray: none; stroke-linecap: butt; stroke-dashoffset: 0; stroke-linejoin: miter; stroke-miterlimit: 4; fill: rgb(255,210,140); fill-rule: evenodd; opacity: 1;" vector-effect="non-scaling-stroke"  transform=" translate(-330.56, -67.91)" d="M 332.68 50.2 L 327.99 40.660000000000004 L 321.26 54.980000000000004 L 305.26 57.150000000000006 L 313.94 65.48 L 308.91 58.190000000000005 L 321.89000000000004 56.63 L 328.00000000000006 44.14 L 333.7900000000001 55.55 L 340.1500000000001 56.629999999999995 L 334.4200000000001 54.28999999999999 L 332.68000000000006 50.209999999999994 Z M 355.86 59.84 L 350.67 65.56 L 345.1 70.26 L 349.09000000000003 92.12 L 348.05 93.86 L 335.72 87.77 L 328.1 83.44 L 320.26000000000005 87.75 L 317.4200000000001 88.8 L 308.94000000000005 93.46 L 306.40000000000003 92.80999999999999 L 308.55 95.14999999999999 L 316.68 89.97999999999999 L 319.40000000000003 89.52 L 327.75000000000006 85.17 L 340.24000000000007 91.07000000000001 L 345.00000000000006 94.17 L 349.26000000000005 94.37 L 350.59000000000003 91.53 L 349.41 87.83 L 348.91 83.62 L 346.13000000000005 71.13000000000001 L 350.20000000000005 67.64000000000001 L 355.85 59.850000000000016 Z" stroke-linecap="round" />
</g>
<g transform="matrix(7.86 0 0 7.86 550.98 497.27)"  >
<path style="stroke: none; stroke-width: 0; stroke-dasharray: none; stroke-linecap: butt; stroke-dashoffset: 0; stroke-linejoin: miter; stroke-miterlimit: 4; fill: rgb(109,66,1); fill-rule: evenodd; opacity: 1;" vector-effect="non-scaling-stroke"  transform=" translate(-327.8, -61.3)" d="M 327.74 30.02 L 338.14 50.3 L 360.65999999999997 53.72 L 344.33 69.92 L 348.15 92.44 L 328.13 82.03999999999999 L 307.45 92.57999999999998 L 311.14 69.92999999999998 L 294.94 53.85999999999998 L 317.59 50.56999999999998 L 327.72999999999996 30.01999999999998 Z M 327.76 38.84 L 335.49 53.910000000000004 L 352.22 56.45 L 340.09000000000003 68.48 L 342.93 85.21000000000001 L 328.06 77.48 L 312.7 85.31 L 315.44 68.48 L 303.41 56.540000000000006 L 320.24 54.09 L 327.77 38.830000000000005 Z" stroke-linecap="round" />
</g>
</svg>