<?xml version="1.0" encoding="UTF-8" standalone="no" ?>
<!DOCTYPE svg PUBLIC "-//W3C//DTD SVG 1.1//EN" "http://www.w3.org/Graphics/SVG/1.1/DTD/svg11.dtd">
<svg xmlns="http://www.w3.org/2000/svg" xmlns:xlink="http://www.w3.org/1999/xlink" version="1.1" width="1080" height="1080" viewBox="0 0 1080 1080" xml:space="preserve">
<desc>Created with Fabric.js 5.2.4</desc>
<defs>
</defs>
<rect x="0" y="0" width="100%" height="100%" fill="transparent"></rect>
<g transform="matrix(1 0 0 1 540 540)" id="406e5bf5-9b92-4ce2-a1f8-a443e79c74f0"  >
<rect style="stroke: none; stroke-width: 1; stroke-dasharray: none; stroke-linecap: butt; stroke-dashoffset: 0; stroke-linejoin: miter; stroke-miterlimit: 4; fill: rgb(255,255,255); fill-rule: nonzero; opacity: 1; visibility: hidden;" vector-effect="non-scaling-stroke"  x="-540" y="-540" rx="0" ry="0" width="1080" height="1080" />
</g>
<g transform="matrix(1 0 0 1 540 540)" id="7f425f29-642a-4fbd-abdf-34708c304a73"  >
</g>
<g transform="matrix(2.5 0 0 2.5 203.22 535.75)"  >
<path style="stroke: none; stroke-width: 0; stroke-dasharray: none; stroke-linecap: butt; stroke-dashoffset: 0; stroke-linejoin: miter; stroke-miterlimit: 4; fill: rgb(216,150,50); fill-rule: evenodd; opacity: 1;" vector-effect="non-scaling-stroke"  transform=" translate(-193.28, -65.7)" d="M 167.23 7.45 C 138.63 19.84 126.11999999999999 42.120000000000005 130.81 80.38000000000001 C 135.5 118.64000000000001 171.23000000000002 132.59 204.15 130.27 C 235.33 128.07000000000002 255.86 93.34 256.7 62.63000000000001 C 257.65999999999997 27.67000000000001 221.07999999999998 -15.86999999999999 167.23 7.45000000000001 Z" stroke-linecap="round" />
</g>
<g transform="matrix(2.5 0 0 2.5 203.45 537.11)"  >
<path style="stroke: none; stroke-width: 0; stroke-dasharray: none; stroke-linecap: butt; stroke-dashoffset: 0; stroke-linejoin: miter; stroke-miterlimit: 4; fill: rgb(109,66,1); fill-rule: evenodd; opacity: 1;" vector-effect="non-scaling-stroke"  transform=" translate(-193.37, -66.24)" d="M 167.73 5.75 C 147.79 14.37 142.14 25.41 138.20999999999998 31.38 C 146.07999999999998 20.81 156.46999999999997 13 167.26 8.209999999999997 C 185.75 -0.03 194.75 1.64 200.7 0.92 C 197.85 0.28 182.94 -0.83 167.72 5.75 Z M 130.54999999999998 76.27 C 129.89999999999998 85.89999999999999 135.14 106.72 153.17999999999998 118.78 C 169.73999999999998 129.85 193.34999999999997 134.91 210.2 130.42000000000002 C 220.64 127.64000000000001 236.91 117.88000000000002 247.12 101.34000000000002 C 253.39000000000001 91.19000000000001 256.76 74.22000000000001 256.18 67.99000000000001 C 256.2 74.4 250.07 96.52000000000001 243.38 104.23000000000002 C 224.89 125.52000000000001 205.68 129.52 188.99 127.15000000000002 C 162.09 123.33000000000003 149.02 112.37000000000002 141.39000000000001 101.08000000000001 C 136.00000000000003 93.10000000000001 132.74 86.78000000000002 130.56 76.26000000000002 Z M 214.67 3.73 C 214.67 3.73 228.91 5.74 238.1 15.18 C 244.87 22.14 251.10999999999999 36.870000000000005 251.10999999999999 36.870000000000005 C 251.10999999999999 36.870000000000005 244.52999999999997 24.960000000000004 234.85999999999999 15.600000000000005 C 225.26999999999998 6.310000000000006 214.67 3.720000000000004 214.67 3.720000000000004 Z M 239.04 30.6 C 235.22 24.35 230.95999999999998 16.39 217.18 9.780000000000001 C 210.69 6.670000000000002 192.37 6.830000000000001 185.77 8.39 C 179.18 9.950000000000001 174.76000000000002 11.620000000000001 167.21 15.080000000000002 C 154.26000000000002 21.020000000000003 144.48000000000002 33.63 141.53 40.57 C 138.57999999999998 47.51 137.88 56.81 138.22 65.31 C 138.56 73.81 142.21 86.48 145.85 91.69 C 149.48999999999998 96.89999999999999 157.65 103.66 161.99 106.61 C 159.24 102.11 155.74 98.11 153.83 96.37 C 151.92000000000002 94.63000000000001 144.29000000000002 85.79 143.25 81.45 C 142.21 77.11 143.77 75.2 142.56 71.56 C 141.35 67.92 140.3 57.68 140.65 54.730000000000004 C 141 51.78000000000001 141.69 46.400000000000006 143.77 42.580000000000005 C 145.85000000000002 38.760000000000005 158.87 25.570000000000004 161.47 22.800000000000004 C 164.07 20.020000000000003 172.75 15.860000000000003 178.48 13.950000000000005 C 184.20999999999998 12.040000000000006 186.81 10.480000000000004 189.76 9.960000000000004 C 192.70999999999998 9.440000000000005 207.63 8.920000000000005 212.66 11.350000000000005 C 217.69 13.780000000000005 224.07999999999998 17.560000000000006 226.85999999999999 20.340000000000003 C 229.64 23.120000000000005 232.83999999999997 23.450000000000003 239.04 30.610000000000003 L 239.04 30.610000000000003 Z" stroke-linecap="round" />
</g>
<g transform="matrix(2.5 0 0 2.5 204.78 525.21)"  >
<path style="stroke: none; stroke-width: 0; stroke-dasharray: none; stroke-linecap: butt; stroke-dashoffset: 0; stroke-linejoin: miter; stroke-miterlimit: 4; fill: rgb(255,210,140); fill-rule: evenodd; opacity: 1;" vector-effect="non-scaling-stroke"  transform=" translate(-193.91, -61.48)" d="M 244.77 44.48 C 248.43 51.209999999999994 250.84 69.47 249.8 74.85 C 248.76000000000002 80.22999999999999 245.29000000000002 91.86 241.47 97.06 C 237.64999999999998 102.26 231.4 110.61 215.09 116.49000000000001 C 208.84 118.75000000000001 197.59 120.41000000000001 185.31 119.01 C 180.51 118.46000000000001 173.15 114.82000000000001 171.76 113.96000000000001 C 179.45 115.9 184.54999999999998 116.32000000000001 191.31 116.32000000000001 C 198.07000000000002 116.32000000000001 213.07 114.72000000000001 224.8 106.95 C 238.99 97.55 243.52 84.83 244.73000000000002 77.71000000000001 C 245.94000000000003 70.60000000000001 246.9 53.97000000000001 244.75000000000003 44.48000000000001 Z M 175.51 6.04 C 166.66 9.42 156.82 14.600000000000001 146.64999999999998 24.55 C 141.28999999999996 29.8 137.76999999999998 41.57 137.76999999999998 41.57 C 137.76999999999998 41.57 144.01999999999998 29.6 149.21999999999997 24.65 C 154.42999999999998 19.7 166.05999999999997 11.549999999999999 177.73999999999998 7.489999999999998 C 186.95 4.2799999999999985 197.89999999999998 4.089999999999998 204.65999999999997 4.869999999999998 C 195.02999999999997 2.919999999999998 184.35999999999996 2.6599999999999984 175.50999999999996 6.039999999999998 Z" stroke-linecap="round" />
</g>
<g transform="matrix(2.5 0 0 2.5 210.42 536.7)"  >
<path style="stroke: none; stroke-width: 0; stroke-dasharray: none; stroke-linecap: butt; stroke-dashoffset: 0; stroke-linejoin: miter; stroke-miterlimit: 4; fill: rgb(255,210,140); fill-rule: evenodd; opacity: 1;" vector-effect="non-scaling-stroke"  transform=" translate(-196.16, -66.07)" d="M 199.57 55.62 L 194.23 45.86 C 194.23 45.86 188.89 53.8 188.36999999999998 54.58 C 187.84999999999997 55.36 185.76999999999998 58.61 185.37999999999997 59.79 C 184.98999999999995 60.97 181.86999999999998 66.95 181.34999999999997 67.6 C 180.82999999999996 68.24999999999999 186.29999999999995 61.349999999999994 186.81999999999996 59.78999999999999 C 187.33999999999997 58.22999999999999 190.97999999999996 52.88999999999999 190.97999999999996 52.88999999999999 L 194.13999999999996 48.629999999999995 L 199.56999999999996 55.62 Z M 167.43 84.77 C 168.34 84.77 171.46 84.25 174.07 84.64 C 176.67999999999998 85.03 186.56 85.42 189.43 85.03 C 192.3 84.64 201.92000000000002 84.25 204.66 84.25 C 207.39999999999998 84.25 214.81 84.9 218.32 84.64 C 221.82999999999998 84.38 222.57 84.19 223.09 84.32000000000001 C 223.61 84.45000000000002 222.33 80.9 222.33 80.9 L 224.96 84.38000000000001 L 224.18 85.55000000000001 C 224.18 85.55000000000001 219.89000000000001 86.33000000000001 217.41 86.07000000000001 C 214.92999999999998 85.81 212.99 85.29 208.04 85.42 C 203.08999999999997 85.55 198.54 85.42 196.59 85.68 C 194.64000000000001 85.94000000000001 187.87 86.2 185.53 86.2 C 183.19 86.2 176.03 86.46000000000001 174.99 86.07000000000001 C 173.95000000000002 85.68 166.53 84.77000000000001 167.44 84.77000000000001 Z" stroke-linecap="round" />
</g>
<g transform="matrix(2.5 0 0 2.5 204.7 518.92)"  >
<path style="stroke: none; stroke-width: 0; stroke-dasharray: none; stroke-linecap: butt; stroke-dashoffset: 0; stroke-linejoin: miter; stroke-miterlimit: 4; fill: rgb(109,66,1); fill-rule: evenodd; opacity: 1;" vector-effect="non-scaling-stroke"  transform=" translate(-193.88, -58.97)" d="M 222.36 83.62 L 165.39000000000001 83.64 L 193.86 34.3 L 222.36 83.63 Z M 214.15 78.59 L 173.61 78.59 C 173.61 78.59 193.87 43.49 193.87 43.49 L 214.15 78.59 Z" stroke-linecap="round" />
</g>
<g transform="matrix(2.5 0 0 2.5 536.54 536.97)"  >
<path style="stroke: none; stroke-width: 0; stroke-dasharray: none; stroke-linecap: butt; stroke-dashoffset: 0; stroke-linejoin: miter; stroke-miterlimit: 4; fill: rgb(216,150,50); fill-rule: evenodd; opacity: 1;" vector-effect="non-scaling-stroke"  transform=" translate(-326.38, -66.19)" d="M 300.33 7.94 C 271.72999999999996 20.330000000000002 259.21999999999997 42.61 263.90999999999997 80.87 C 268.59999999999997 119.13 304.33 133.08 337.25 130.76 C 368.43 128.56 388.96 93.82999999999998 389.8 63.11999999999999 C 390.76 28.15999999999999 354.18 -15.38000000000001 300.33000000000004 7.939999999999991 Z" stroke-linecap="round" />
</g>
<g transform="matrix(2.5 0 0 2.5 536.74 538.35)"  >
<path style="stroke: none; stroke-width: 0; stroke-dasharray: none; stroke-linecap: butt; stroke-dashoffset: 0; stroke-linejoin: miter; stroke-miterlimit: 4; fill: rgb(109,66,1); fill-rule: evenodd; opacity: 1;" vector-effect="non-scaling-stroke"  transform=" translate(-326.46, -66.73)" d="M 300.82 6.24 C 280.88 14.86 275.23 25.9 271.3 31.869999999999997 C 279.17 21.299999999999997 289.56 13.489999999999998 300.35 8.699999999999996 C 318.85 0.4699999999999953 327.85 2.139999999999996 333.8 1.4199999999999955 C 330.95 0.7799999999999955 316.04 -0.3300000000000045 300.82 6.249999999999996 Z M 263.64 76.75999999999999 C 262.99 86.38999999999999 268.22999999999996 107.21 286.27 119.26999999999998 C 302.83 130.33999999999997 326.44 135.39999999999998 343.28999999999996 130.90999999999997 C 353.72999999999996 128.12999999999997 369.99999999999994 118.36999999999998 380.21 101.82999999999997 C 386.47999999999996 91.67999999999996 389.84999999999997 74.70999999999997 389.27 68.47999999999996 C 389.28999999999996 74.88999999999996 383.15999999999997 97.00999999999996 376.46999999999997 104.71999999999997 C 357.97999999999996 126.00999999999996 338.77 130.00999999999996 322.08 127.63999999999997 C 295.18 123.81999999999998 282.11 112.85999999999997 274.47999999999996 101.56999999999996 C 269.09 93.58999999999996 265.83 87.26999999999997 263.65 76.74999999999997 Z M 347.77 4.22 C 347.77 4.22 362.01 6.2299999999999995 371.2 15.669999999999998 C 377.96999999999997 22.63 384.21 37.36 384.21 37.36 C 384.21 37.36 377.63 25.45 367.96 16.09 C 358.37 6.800000000000001 347.77 4.209999999999999 347.77 4.209999999999999 L 347.77 4.209999999999999 Z M 372.14 31.09 C 368.32 24.84 364.06 16.88 350.28 10.27 C 343.78999999999996 7.16 325.46999999999997 7.319999999999999 318.86999999999995 8.879999999999999 C 312.28 10.44 307.85999999999996 12.11 300.30999999999995 15.57 C 287.35999999999996 21.51 277.5799999999999 34.120000000000005 274.62999999999994 41.06 C 271.67999999999995 48 270.97999999999996 57.3 271.31999999999994 65.8 C 271.6599999999999 74.3 275.30999999999995 86.97 278.94999999999993 92.17999999999999 C 282.5899999999999 97.38999999999999 290.74999999999994 104.14999999999999 295.0899999999999 107.1 C 292.3399999999999 102.6 288.8399999999999 98.6 286.9299999999999 96.86 C 285.01999999999987 95.12 277.3899999999999 86.28 276.3499999999999 81.94 C 275.30999999999995 77.6 276.8699999999999 75.69 275.6599999999999 72.05 C 274.44999999999993 68.41 273.3999999999999 58.169999999999995 273.7499999999999 55.22 C 274.09999999999985 52.27 274.7899999999999 46.89 276.8699999999999 43.07 C 278.9499999999999 39.25 291.9699999999999 26.06 294.5699999999999 23.29 C 297.16999999999985 20.52 305.84999999999985 16.349999999999998 311.5699999999999 14.44 C 317.2999999999999 12.53 319.89999999999986 10.969999999999999 322.84999999999985 10.45 C 325.79999999999984 9.93 340.71999999999986 9.41 345.74999999999983 11.84 C 350.7799999999998 14.27 357.16999999999985 18.05 359.9499999999998 20.83 C 362.7299999999998 23.609999999999996 365.92999999999984 23.939999999999998 372.1299999999998 31.099999999999998 L 372.1299999999998 31.099999999999998 Z" stroke-linecap="round" />
</g>
<g transform="matrix(2.5 0 0 2.5 538.09 526.43)"  >
<path style="stroke: none; stroke-width: 0; stroke-dasharray: none; stroke-linecap: butt; stroke-dashoffset: 0; stroke-linejoin: miter; stroke-miterlimit: 4; fill: rgb(255,210,140); fill-rule: evenodd; opacity: 1;" vector-effect="non-scaling-stroke"  transform=" translate(-327, -61.97)" d="M 377.86 44.97 C 381.52000000000004 51.7 383.93 69.96 382.89 75.34 C 381.84999999999997 80.72000000000001 378.38 92.35000000000001 374.56 97.55000000000001 C 370.74 102.75000000000001 364.49 111.10000000000001 348.19 116.98000000000002 C 341.94 119.24000000000002 330.69 120.90000000000002 318.40999999999997 119.50000000000001 C 313.60999999999996 118.95000000000002 306.24999999999994 115.31000000000002 304.85999999999996 114.45000000000002 C 312.54999999999995 116.39000000000001 317.65 116.81000000000002 324.40999999999997 116.81000000000002 C 331.16999999999996 116.81000000000002 346.16999999999996 115.21000000000002 357.9 107.44000000000001 C 372.09 98.04 376.62 85.32000000000001 377.83 78.20000000000002 C 379.03999999999996 71.08000000000003 380 54.46000000000002 377.84999999999997 44.97000000000002 Z M 308.61 6.53 C 299.76 9.91 289.92 15.09 279.75 25.040000000000003 C 274.39 30.290000000000003 270.87 42.06 270.87 42.06 C 270.87 42.06 277.12 30.090000000000003 282.32 25.14 C 287.53 20.19 299.15999999999997 12.040000000000001 310.84 7.98 C 320.04999999999995 4.7700000000000005 331 4.58 337.76 5.36 C 328.13 3.41 317.46 3.1500000000000004 308.61 6.53 Z" stroke-linecap="round" />
</g>
<g transform="matrix(2.5 0 0 2.5 547 541.29)"  >
<path style="stroke: none; stroke-width: 0; stroke-dasharray: none; stroke-linecap: butt; stroke-dashoffset: 0; stroke-linejoin: miter; stroke-miterlimit: 4; fill: rgb(255,210,140); fill-rule: evenodd; opacity: 1;" vector-effect="non-scaling-stroke"  transform=" translate(-330.56, -67.91)" d="M 332.68 50.2 L 327.99 40.660000000000004 L 321.26 54.980000000000004 L 305.26 57.150000000000006 L 313.94 65.48 L 308.91 58.190000000000005 L 321.89000000000004 56.63 L 328.00000000000006 44.14 L 333.7900000000001 55.55 L 340.1500000000001 56.629999999999995 L 334.4200000000001 54.28999999999999 L 332.68000000000006 50.209999999999994 Z M 355.86 59.84 L 350.67 65.56 L 345.1 70.26 L 349.09000000000003 92.12 L 348.05 93.86 L 335.72 87.77 L 328.1 83.44 L 320.26000000000005 87.75 L 317.4200000000001 88.8 L 308.94000000000005 93.46 L 306.40000000000003 92.80999999999999 L 308.55 95.14999999999999 L 316.68 89.97999999999999 L 319.40000000000003 89.52 L 327.75000000000006 85.17 L 340.24000000000007 91.07000000000001 L 345.00000000000006 94.17 L 349.26000000000005 94.37 L 350.59000000000003 91.53 L 349.41 87.83 L 348.91 83.62 L 346.13000000000005 71.13000000000001 L 350.20000000000005 67.64000000000001 L 355.85 59.850000000000016 Z" stroke-linecap="round" />
</g>
<g transform="matrix(2.5 0 0 2.5 540.09 524.75)"  >
<path style="stroke: none; stroke-width: 0; stroke-dasharray: none; stroke-linecap: butt; stroke-dashoffset: 0; stroke-linejoin: miter; stroke-miterlimit: 4; fill: rgb(109,66,1); fill-rule: evenodd; opacity: 1;" vector-effect="non-scaling-stroke"  transform=" translate(-327.8, -61.3)" d="M 327.74 30.02 L 338.14 50.3 L 360.65999999999997 53.72 L 344.33 69.92 L 348.15 92.44 L 328.13 82.03999999999999 L 307.45 92.57999999999998 L 311.14 69.92999999999998 L 294.94 53.85999999999998 L 317.59 50.56999999999998 L 327.72999999999996 30.01999999999998 Z M 327.76 38.84 L 335.49 53.910000000000004 L 352.22 56.45 L 340.09000000000003 68.48 L 342.93 85.21000000000001 L 328.06 77.48 L 312.7 85.31 L 315.44 68.48 L 303.41 56.540000000000006 L 320.24 54.09 L 327.77 38.830000000000005 Z" stroke-linecap="round" />
</g>
<g transform="matrix(2.5 0 0 2.5 876.78 541.53)"  >
<path style="stroke: none; stroke-width: 0; stroke-dasharray: none; stroke-linecap: butt; stroke-dashoffset: 0; stroke-linejoin: miter; stroke-miterlimit: 4; fill: rgb(216,150,50); fill-rule: evenodd; opacity: 1;" vector-effect="non-scaling-stroke"  transform=" translate(-462.24, -68.01)" d="M 436.19 9.76 C 407.59 22.15 395.08 44.43 399.77 82.69000000000001 C 404.46 120.95000000000002 440.19 134.9 473.11 132.58 C 504.29 130.38000000000002 524.82 95.65 525.66 64.94000000000001 C 526.62 29.98000000000001 490.03999999999996 -13.559999999999988 436.18999999999994 9.760000000000012 Z" stroke-linecap="round" />
</g>
<g transform="matrix(2.5 0 0 2.5 877 542.9)"  >
<path style="stroke: none; stroke-width: 0; stroke-dasharray: none; stroke-linecap: butt; stroke-dashoffset: 0; stroke-linejoin: miter; stroke-miterlimit: 4; fill: rgb(109,66,1); fill-rule: evenodd; opacity: 1;" vector-effect="non-scaling-stroke"  transform=" translate(-462.33, -68.55)" d="M 436.69 8.06 C 416.75 16.68 411.1 27.72 407.17 33.69 C 415.04 23.119999999999997 425.43 15.309999999999999 436.22 10.519999999999996 C 454.72 2.2899999999999956 463.72 3.9599999999999964 469.67 3.2399999999999958 C 466.82 2.5999999999999956 451.91 1.4899999999999958 436.69 8.069999999999997 Z M 399.51 78.58 C 398.86 88.21 404.09999999999997 109.03 422.14 121.09 C 438.7 132.16 462.31 137.22 479.15999999999997 132.73000000000002 C 489.59999999999997 129.95000000000002 505.86999999999995 120.19000000000003 516.0799999999999 103.65000000000002 C 522.3499999999999 93.50000000000001 525.7199999999999 76.53000000000002 525.1399999999999 70.30000000000001 C 525.1599999999999 76.71000000000001 519.0299999999999 98.83000000000001 512.3399999999999 106.54000000000002 C 493.8499999999999 127.83000000000001 474.63999999999993 131.83 457.94999999999993 129.46000000000004 C 431.04999999999995 125.64000000000004 417.9799999999999 114.68000000000004 410.3499999999999 103.39000000000004 C 404.9599999999999 95.41000000000004 401.69999999999993 89.09000000000005 399.5199999999999 78.57000000000005 Z M 483.63 6.04 C 483.63 6.04 497.87 8.05 507.06 17.49 C 513.83 24.45 520.07 39.18 520.07 39.18 C 520.07 39.18 513.49 27.27 503.82000000000005 17.91 C 494.2300000000001 8.620000000000001 483.63000000000005 6.029999999999999 483.63000000000005 6.029999999999999 Z M 508 32.910000000000004 C 504.18 26.660000000000004 499.92 18.700000000000003 486.14 12.090000000000003 C 479.65 8.980000000000004 461.33 9.140000000000004 454.72999999999996 10.700000000000003 C 448.12999999999994 12.260000000000002 443.71999999999997 13.930000000000003 436.16999999999996 17.390000000000004 C 423.21999999999997 23.330000000000005 413.43999999999994 35.940000000000005 410.48999999999995 42.88 C 407.53999999999996 49.82 406.84 59.120000000000005 407.17999999999995 67.62 C 407.5199999999999 76.12 411.16999999999996 88.79 414.80999999999995 94 C 418.44999999999993 99.21 426.60999999999996 105.97 430.94999999999993 108.92 C 428.19999999999993 104.42 424.69999999999993 100.42 422.7899999999999 98.68 C 420.8799999999999 96.94000000000001 413.2499999999999 88.10000000000001 412.2099999999999 83.76 C 411.16999999999996 79.42 412.7299999999999 77.51 411.5199999999999 73.87 C 410.30999999999995 70.23 409.25999999999993 59.99 409.6099999999999 57.040000000000006 C 409.95999999999987 54.09000000000001 410.6499999999999 48.71000000000001 412.7299999999999 44.89000000000001 C 414.8099999999999 41.07000000000001 427.8299999999999 27.880000000000006 430.4299999999999 25.110000000000007 C 433.02999999999986 22.340000000000007 441.70999999999987 18.170000000000005 447.4399999999999 16.260000000000005 C 453.1699999999999 14.350000000000005 455.76999999999987 12.790000000000004 458.71999999999986 12.270000000000005 C 461.66999999999985 11.750000000000005 476.58999999999986 11.230000000000004 481.61999999999983 13.660000000000005 C 486.6499999999998 16.090000000000007 493.03999999999985 19.870000000000005 495.8199999999998 22.650000000000006 C 498.5999999999998 25.430000000000007 501.79999999999984 25.760000000000005 507.99999999999983 32.92 Z" stroke-linecap="round" />
</g>
<g transform="matrix(2.5 0 0 2.5 878.34 530.98)"  >
<path style="stroke: none; stroke-width: 0; stroke-dasharray: none; stroke-linecap: butt; stroke-dashoffset: 0; stroke-linejoin: miter; stroke-miterlimit: 4; fill: rgb(255,210,140); fill-rule: evenodd; opacity: 1;" vector-effect="non-scaling-stroke"  transform=" translate(-462.87, -63.79)" d="M 513.73 46.79 C 517.38 53.519999999999996 519.8000000000001 71.78 518.76 77.16 C 517.72 82.53999999999999 514.25 94.17 510.43 99.37 C 506.61 104.58 500.36 112.92 484.05 118.80000000000001 C 477.8 121.06000000000002 466.55 122.72000000000001 454.27 121.32000000000001 C 449.46999999999997 120.77000000000001 442.10999999999996 117.13000000000001 440.71999999999997 116.27000000000001 C 448.40999999999997 118.21000000000001 453.51 118.63000000000001 460.27 118.63000000000001 C 467.03 118.63000000000001 482.03 117.03000000000002 493.76 109.26 C 507.95 99.86 512.48 87.14 513.6899999999999 80.02000000000001 C 514.9 72.91000000000001 515.8599999999999 56.280000000000015 513.7099999999999 46.79000000000001 Z M 444.48 8.339999999999996 C 435.63 11.719999999999995 425.79 16.9 415.62 26.849999999999998 C 410.26 32.099999999999994 406.74 43.87 406.74 43.87 C 406.74 43.87 412.99 31.9 418.19 26.949999999999996 C 423.39 21.999999999999993 435.03 13.849999999999996 446.71 9.789999999999996 C 455.91999999999996 6.579999999999996 466.87 6.389999999999995 473.63 7.1699999999999955 C 464 5.219999999999995 453.33 4.9599999999999955 444.48 8.339999999999996 Z" stroke-linecap="round" />
</g>
<g transform="matrix(2.5 0 0 2.5 879.93 543.93)"  >
<path style="stroke: none; stroke-width: 0; stroke-dasharray: none; stroke-linecap: butt; stroke-dashoffset: 0; stroke-linejoin: miter; stroke-miterlimit: 4; fill: rgb(255,210,140); fill-rule: evenodd; opacity: 1;" vector-effect="non-scaling-stroke"  transform=" translate(-463.5, -68.96)" d="M 462.89 35.42 C 461.33 36.2 461.06 40.08 461.06 40.08 C 461.06 40.08 457.89 40.73 454.95 41.97 C 449.02 44.46 448.51 43.83 446.17 45.39 C 443.83000000000004 46.95 438.6 50.94 437.03000000000003 53.28 C 435.47 55.620000000000005 433.39000000000004 60.83 433.39000000000004 60.83 C 433.39000000000004 60.83 435.43000000000006 56.54 438.58000000000004 53.01 C 440.48 50.879999999999995 443.44000000000005 49.25 444.72 48.37 C 448.1 46.03 453.59000000000003 43.669999999999995 457.23 42.36 C 460.87 41.050000000000004 462.02000000000004 41.31 462.02000000000004 41.31 C 462.02000000000004 41.31 461.78000000000003 37.49 462.81000000000006 37.32 C 463.05000000000007 37.28 463.61000000000007 37.03 463.81000000000006 37.73 C 464.05000000000007 38.57 463.95000000000005 40.4 464.62000000000006 40.629999999999995 C 466.4100000000001 41.23 471.62000000000006 42.419999999999995 469.7900000000001 41.9 C 467.9600000000001 41.38 471.0200000000001 42.589999999999996 472.4200000000001 43.14 C 474.7800000000001 44.06 481.12000000000006 46.19 478.5200000000001 45.15 C 475.92000000000013 44.11 483.0300000000001 46.71 484.1300000000001 48.61 C 485.9500000000001 51.73 489.98000000000013 57.04 489.98000000000013 57.04 C 489.98000000000013 57.04 486.6800000000001 49.45 483.16000000000014 46.73 C 480.13000000000017 44.379999999999995 476.02000000000015 43.68 472.45000000000016 41.73 C 470.07000000000016 40.43 464.44000000000017 39.879999999999995 464.44000000000017 39.879999999999995 C 464.44000000000017 39.879999999999995 464.3000000000002 37.8 463.9200000000002 36.60999999999999 C 463.5800000000002 35.54999999999999 463.00000000000017 35.36999999999999 462.8700000000002 35.42999999999999 Z M 454.47999999999996 67.19 C 455.93999999999994 65.84 457.59999999999997 65.94 457.59999999999997 65.94 C 457.59999999999997 65.94 457.28999999999996 71.46 457.28999999999996 71.87 C 457.28999999999996 72.28000000000002 456.24999999999994 80.2 456.77 83.84 C 457.29 87.48 458.68 93.79 459.09 94.62 C 459.49999999999994 95.45 458.33 89.46000000000001 458.02 86.13000000000001 C 457.71 82.80000000000001 457.81 79.05000000000001 458.02 75.72000000000001 C 458.22999999999996 72.39000000000001 458.34999999999997 67.01000000000002 458.14 65.45000000000002 C 457.93 63.890000000000015 457.09 65.11000000000001 457.09 65.11000000000001 C 457.09 65.11000000000001 453.03 68.55000000000001 454.48999999999995 67.19000000000001 Z M 479.67999999999995 86.55 C 478.73999999999995 86.75999999999999 478.53999999999996 86.97 478.42999999999995 87.59 C 478.31999999999994 88.21000000000001 478.00999999999993 89.88000000000001 477.90999999999997 90.61 C 477.81 91.33999999999999 476.72999999999996 93.85 475.68999999999994 94.37 C 474.6499999999999 94.89000000000001 472.8299999999999 95.38000000000001 472.15999999999997 95.31 C 471.49 95.24 468.76 95.29 466.51 93.78 C 464.68 92.56 464.67 89.62 464.31 88.85 C 464.39 89.53 465.04 93.50999999999999 466.36 94.36 C 466.82 94.66 468.69 95.42 471.13 95.6 C 472.65 95.71 475.06 95.47 475.42 95.19 C 476.36 94.46 477.40000000000003 94.11 478.13 92.44 C 478.85999999999996 90.77 478.45 90.28 478.65999999999997 89.24 C 478.86999999999995 88.19999999999999 478.7 87.21 479.49999999999994 87.07 C 480.2999999999999 86.92999999999999 480.73999999999995 88.32 480.73999999999995 88.32 C 480.73999999999995 88.32 480.63999999999993 86.33999999999999 479.69999999999993 86.55 Z M 467.54999999999995 65.69 C 467.41999999999996 67.77 467.53 72.71 467.53 72.71 C 467.53 72.71 468.17999999999995 72.44999999999999 468.17999999999995 70.89 C 468.17999999999995 70.09 468.23999999999995 67.49 468.23999999999995 67.49 C 468.23999999999995 67.49 469.81999999999994 67.97 470.25999999999993 68.41 C 471.16999999999996 69.32 474.13999999999993 70.75999999999999 474.3999999999999 71.28 C 474.6599999999999 71.80000000000001 477.56999999999994 69.06 478.4799999999999 68.02 C 479.3899999999999 66.97999999999999 481.1899999999999 66.33 482.4899999999999 65.94 C 483.7899999999999 65.55 488.2299999999999 65.98 489.1399999999999 66.24 C 490.04999999999984 66.49999999999999 491.9399999999999 67.14999999999999 491.9399999999999 67.14999999999999 L 495.1399999999999 68.69999999999999 C 495.1399999999999 68.69999999999999 491.3699999999999 65.68999999999998 489.66999999999985 65.29999999999998 C 487.9699999999998 64.90999999999998 484.8199999999998 64.37999999999998 483.2599999999998 64.89999999999998 C 481.6999999999998 65.41999999999997 479.7899999999998 65.87999999999998 478.0899999999998 67.04999999999998 C 476.3899999999998 68.21999999999998 474.5399999999998 70.10999999999999 474.5399999999998 70.10999999999999 C 474.5399999999998 70.10999999999999 470.0599999999998 66.19999999999999 469.0199999999998 66.32999999999998 C 467.97999999999985 66.45999999999998 468.05999999999983 65.20999999999998 467.5399999999998 65.69999999999999 Z M 432.25999999999993 66.46 C 432.68999999999994 66.25999999999999 434.25999999999993 65.17999999999999 433.2199999999999 65.83999999999999 C 432.1799999999999 66.49999999999999 434.1099999999999 64.43999999999998 436.94999999999993 64.63999999999999 C 440.5899999999999 64.89999999999999 443.19999999999993 64.11999999999999 445.1499999999999 65.67999999999999 C 445.87999999999994 66.27 447.8499999999999 67.32 447.8499999999999 67.32 C 447.8499999999999 67.32 444.6699999999999 66.69 443.2899999999999 65.94999999999999 C 441.0799999999999 64.77999999999999 438.25999999999993 65.53999999999999 436.8199999999999 65.40999999999998 C 435.3799999999998 65.27999999999997 431.8699999999999 66.70999999999998 431.8699999999999 66.70999999999998 M 462.57999999999987 99.10999999999999 C 464.39999999999986 99.88999999999999 465.82999999999987 101.05999999999999 468.82999999999987 101.31999999999998 C 471.82999999999987 101.57999999999997 473.51999999999987 102.22999999999998 475.85999999999984 101.05999999999997 C 478.1999999999998 99.88999999999997 480.80999999999983 99.23999999999998 481.58999999999986 97.41999999999997 C 482.3699999999999 95.59999999999997 483.40999999999985 91.94999999999997 483.40999999999985 91.94999999999997 C 483.40999999999985 91.94999999999997 483.92999999999984 95.32999999999997 483.40999999999985 95.97999999999998 C 482.8899999999999 96.62999999999998 484.3199999999999 97.53999999999998 480.67999999999984 99.61999999999998 C 477.0399999999998 101.69999999999997 474.42999999999984 102.60999999999997 472.60999999999984 102.47999999999998 C 470.78999999999985 102.34999999999998 465.3199999999998 102.47999999999998 463.6299999999998 101.17999999999998 C 461.9399999999998 99.87999999999998 461.1599999999998 98.31999999999998 460.5099999999998 97.66999999999997 C 459.85999999999984 97.01999999999997 460.7699999999998 98.31999999999998 462.5899999999998 99.09999999999998 L 462.5899999999998 99.09999999999998 Z" stroke-linecap="round" />
</g>
<g transform="matrix(2.5 0 0 2.5 878.39 538.51)"  >
<path style="stroke: none; stroke-width: 0; stroke-dasharray: none; stroke-linecap: butt; stroke-dashoffset: 0; stroke-linejoin: miter; stroke-miterlimit: 4; fill: rgb(109,66,1); fill-rule: evenodd; opacity: 1;" vector-effect="non-scaling-stroke"  transform=" translate(-462.89, -66.8)" d="M 485.81 63.54 C 481.19 63.54 477.03000000000003 65.53999999999999 474.1 68.75 C 471.17 65.55 467.01000000000005 63.54 462.39000000000004 63.54 C 457.77000000000004 63.54 453.85 65.42999999999999 450.94000000000005 68.47 C 448.03000000000003 65.42999999999999 443.97 63.54 439.49000000000007 63.54 C 435.0100000000001 63.54 430.9200000000001 65.44 428.00000000000006 68.5 C 429.31000000000006 50.67 444.4200000000001 36.6 462.87000000000006 36.6 C 481.32000000000005 36.6 496.7300000000001 50.95 497.7800000000001 69.03 C 494.8400000000001 65.66 490.5700000000001 63.54 485.81000000000006 63.54 Z M 462.88 32.86 C 465.03 32.86 466.77 34.54 466.77 36.61 C 466.77 38.68 465.03 40.36 462.88 40.36 C 460.73 40.36 458.99 38.68 458.99 36.61 C 458.99 34.54 460.73 32.86 462.88 32.86 Z M 458.55 59.379999999999995 L 458.55 85.72 C 458.55 88.38 459.42 100.73 470.63 100.73 C 483.33 100.73 483.04 90.38000000000001 483.05 86.84 C 483.07 82.75 475.83 82.86 475.73 86.61 C 475.63000000000005 90.36 475.40000000000003 92.82 470.6 92.82 C 466.47 92.82 466.89000000000004 86.94999999999999 466.89000000000004 84.66999999999999 C 466.89000000000004 73.52999999999999 466.63000000000005 59.30999999999999 466.63000000000005 59.30999999999999 L 458.55000000000007 59.37999999999999 Z M 484.48 61.08 C 481.96000000000004 61.08 476.83000000000004 62.589999999999996 474.29 65.08 C 471.75 62.58 466.45000000000005 61.08 462.44 61.08 C 458.42999999999995 61.08 453.18 62.55 450.66 64.92 C 448.14000000000004 62.550000000000004 442.95000000000005 61.08 440.29 61.08 C 437.87 61.08 434.85 61.4 431.8 62.82 C 432.47 54.65 445.12 39.21 462.86 39.21 C 480.6 39.21 493.03000000000003 53.42 493.96000000000004 62.75 C 491.50000000000006 61.02 487.14000000000004 61.08 484.47 61.08 Z M 462.87 34.66 C 464.03000000000003 34.66 464.97 35.56999999999999 464.97 36.69 C 464.97 37.43 464.90000000000003 40.769999999999996 464.90000000000003 40.769999999999996 C 464.90000000000003 40.769999999999996 463.26000000000005 41.91 462.86 41.91 C 462.49 41.91 460.84000000000003 40.98 460.84000000000003 40.98 C 460.84000000000003 40.98 460.75000000000006 37.449999999999996 460.75000000000006 36.69 C 460.75000000000006 35.57 461.69000000000005 34.66 462.8500000000001 34.66 Z M 460.76 54.809999999999995 L 460.76 84.41 C 460.76 91.38 463.15999999999997 98.63 471.65 98.63 C 478.62 98.63 481.15 92.33999999999999 481.15 87.36999999999999 C 481.15 85.38 477.59 85.42999999999999 477.59 87.25999999999999 C 477.59 92.22999999999999 475.32 94.77999999999999 471.64 94.77999999999999 C 466.57 94.77999999999999 464.71999999999997 91.77999999999999 464.71999999999997 83.89999999999999 C 464.71999999999997 78.47999999999999 464.69 54.77999999999999 464.69 54.77999999999999 L 460.76 54.80999999999999 Z" stroke-linecap="round" />
</g>
</svg>