<svg width="1080" height="1080" viewBox="0 0 1080 1080" fill="none" xmlns="http://www.w3.org/2000/svg">
<rect width="1080" height="1080" fill="white"/>
<path fill-rule="evenodd" clip-rule="evenodd" d="M358.277 347.051L538.899 294L721.723 347.051L535.595 396.715L358.277 347.051ZM439.777 342.536L451.892 347.051L535.595 317.703L522.378 313.189L439.777 342.536Z" fill="#002B46"/>
<path d="M704.101 351.566L708.507 350.437V404.616H709.608L715.115 420.418H697.493L703 404.616H704.101V351.566Z" fill="#002B46"/>
<path d="M404.971 414.269C416.253 400.005 432.09 390.284 449.685 386.823C467.28 383.363 485.502 386.385 501.134 395.356C516.767 404.327 528.805 418.67 535.121 435.853C541.437 453.035 541.627 471.953 535.656 489.266C529.685 506.577 517.938 521.17 502.489 530.469C487.039 539.768 468.881 543.172 451.22 540.082C433.56 536.993 417.532 527.608 405.967 513.584C394.401 499.56 388.043 481.799 388.014 463.438L415.371 463.392C415.39 475.143 419.459 486.51 426.862 495.486C434.263 504.461 444.521 510.468 455.824 512.444C467.127 514.422 478.747 512.243 488.635 506.291C498.523 500.341 506.041 491.002 509.863 479.922C513.683 468.841 513.562 456.734 509.52 445.737C505.477 434.741 497.773 425.561 487.768 419.819C477.764 414.078 466.102 412.144 454.84 414.358C443.58 416.574 433.444 422.794 426.224 431.924L404.971 414.269Z" fill="#00895F"/>
<path d="M673.928 414.269C662.645 400.005 646.809 390.284 629.214 386.823C611.619 383.363 593.397 386.385 577.764 395.356C562.132 404.327 550.094 418.67 543.778 435.853C537.461 453.035 537.272 471.953 543.242 489.266C549.214 506.577 560.961 521.17 576.41 530.469C591.859 539.768 610.017 543.172 627.679 540.082C645.339 536.993 661.367 527.608 672.932 513.584C684.497 499.56 690.855 481.799 690.885 463.438L663.528 463.392C663.509 475.143 659.439 486.51 652.037 495.486C644.636 504.461 634.378 510.468 623.075 512.444C611.772 514.422 600.151 512.243 590.263 506.291C580.375 500.341 572.858 491.002 569.036 479.922C565.215 468.841 565.337 456.734 569.378 445.737C573.422 434.741 581.125 425.561 591.13 419.819C601.135 414.078 612.797 412.144 624.058 414.358C635.319 416.574 645.454 422.794 652.675 431.924L673.928 414.269Z" fill="#00895F"/>
<path d="M538.899 458.795L690.695 459.453C691.436 467.261 689.584 475.846 688.132 483.628L538.899 482.499V458.795Z" fill="#00895F"/>
<path d="M540 458.795L388.014 459.36C387.463 467.261 389.314 475.282 390.767 483.063L540 482.499V458.795Z" fill="#00895F"/>
<path d="M511.88 548.627L538.443 522.412C539.307 521.559 540.68 521.572 541.529 522.443L568.149 549.725C569.021 550.618 569.007 552.071 568.12 552.948L541.557 579.163C540.693 580.016 539.321 580.002 538.471 579.132L511.851 551.85C510.979 550.957 510.993 549.504 511.88 548.627Z" fill="#002B46"/>
<path d="M500.693 733L489.413 713.56H481.013V733H469.973V677H492.373C497.547 677 501.947 678.813 505.573 682.44C509.2 686.067 511.013 690.44 511.013 695.56C511.013 699.027 510.027 702.253 508.053 705.24C506.08 708.173 503.467 710.387 500.213 711.88L512.613 733H500.693ZM481.013 687.32V703.88H492.373C494.453 703.88 496.24 703.08 497.733 701.48C499.227 699.827 499.973 697.853 499.973 695.56C499.973 693.267 499.227 691.32 497.733 689.72C496.24 688.12 494.453 687.32 492.373 687.32H481.013ZM552.954 703.96C557.861 706.787 560.314 711.053 560.314 716.76C560.314 721.507 558.634 725.4 555.274 728.44C551.914 731.48 547.781 733 542.874 733H519.114V677H541.194C545.994 677 550.021 678.493 553.274 681.48C556.581 684.413 558.234 688.173 558.234 692.76C558.234 697.4 556.474 701.133 552.954 703.96ZM541.194 687.32H530.154V699.64H541.194C542.901 699.64 544.314 699.053 545.434 697.88C546.607 696.707 547.194 695.24 547.194 693.48C547.194 691.72 546.634 690.253 545.514 689.08C544.394 687.907 542.954 687.32 541.194 687.32ZM542.874 722.68C544.741 722.68 546.287 722.067 547.514 720.84C548.741 719.56 549.354 717.96 549.354 716.04C549.354 714.173 548.741 712.627 547.514 711.4C546.287 710.12 544.741 709.48 542.874 709.48H530.154V722.68H542.874ZM588.041 734.12C581.801 734.12 576.681 732.36 572.681 728.84C568.681 725.32 566.681 720.6 566.681 714.68V677H577.641V713.8C577.641 716.733 578.468 719.053 580.121 720.76C581.828 722.467 584.468 723.32 588.041 723.32C591.614 723.32 594.228 722.467 595.881 720.76C597.588 719.053 598.441 716.733 598.441 713.8V677H609.481V714.68C609.481 720.6 607.481 725.32 603.481 728.84C599.481 732.36 594.334 734.12 588.041 734.12Z" fill="#00895F"/>
<mask id="path-9-outside-1_51_8" maskUnits="userSpaceOnUse" x="282" y="591" width="518" height="77" fill="black">
<rect fill="white" x="282" y="591" width="518" height="77"/>
<path d="M312.328 651.04C303.848 651.04 296.834 648.24 291.288 642.64C285.794 637.04 283.048 630.16 283.048 622C283.048 613.84 285.794 606.96 291.288 601.36C296.834 595.76 303.848 592.96 312.328 592.96C317.448 592.96 322.141 594.187 326.408 596.64C330.728 599.093 334.088 602.4 336.488 606.56L330.008 610.32C328.408 607.227 326.008 604.773 322.808 602.96C319.661 601.093 316.168 600.16 312.328 600.16C305.874 600.16 300.594 602.24 296.488 606.4C292.434 610.56 290.408 615.76 290.408 622C290.408 628.187 292.434 633.36 296.488 637.52C300.594 641.68 305.874 643.76 312.328 643.76C316.168 643.76 319.661 642.853 322.808 641.04C326.008 639.173 328.408 636.72 330.008 633.68L336.488 637.36C334.141 641.52 330.808 644.853 326.488 647.36C322.168 649.813 317.448 651.04 312.328 651.04ZM377.158 610H384.118V650H377.158V643.12C373.691 648.4 368.651 651.04 362.038 651.04C356.438 651.04 351.664 649.013 347.718 644.96C343.771 640.853 341.798 635.867 341.798 630C341.798 624.133 343.771 619.173 347.718 615.12C351.664 611.013 356.438 608.96 362.038 608.96C368.651 608.96 373.691 611.6 377.158 616.88V610ZM362.918 644.32C366.971 644.32 370.358 642.96 373.078 640.24C375.798 637.467 377.158 634.053 377.158 630C377.158 625.947 375.798 622.56 373.078 619.84C370.358 617.067 366.971 615.68 362.918 615.68C358.918 615.68 355.558 617.067 352.838 619.84C350.118 622.56 348.758 625.947 348.758 630C348.758 634.053 350.118 637.467 352.838 640.24C355.558 642.96 358.918 644.32 362.918 644.32ZM437.863 608.96C442.343 608.96 445.969 610.427 448.743 613.36C451.516 616.24 452.903 620.16 452.903 625.12V650H445.943V625.36C445.943 622.267 445.143 619.867 443.543 618.16C441.943 616.453 439.809 615.6 437.143 615.6C434.156 615.6 431.756 616.613 429.943 618.64C428.183 620.613 427.303 623.653 427.303 627.76V650H420.343V625.36C420.343 622.267 419.569 619.867 418.023 618.16C416.529 616.453 414.476 615.6 411.863 615.6C408.929 615.6 406.476 616.613 404.503 618.64C402.583 620.667 401.623 623.707 401.623 627.76V650H394.663V610H401.623V615.36C404.343 611.093 408.316 608.96 413.543 608.96C418.929 608.96 422.849 611.227 425.303 615.76C428.076 611.227 432.263 608.96 437.863 608.96ZM484.633 608.96C490.233 608.96 495.007 611.013 498.953 615.12C502.9 619.173 504.873 624.133 504.873 630C504.873 635.867 502.9 640.853 498.953 644.96C495.007 649.013 490.233 651.04 484.633 651.04C478.02 651.04 472.98 648.4 469.513 643.12V666H462.553V610H469.513V616.88C472.98 611.6 478.02 608.96 484.633 608.96ZM483.753 644.32C487.753 644.32 491.113 642.96 493.833 640.24C496.553 637.467 497.913 634.053 497.913 630C497.913 625.947 496.553 622.56 493.833 619.84C491.113 617.067 487.753 615.68 483.753 615.68C479.7 615.68 476.313 617.067 473.593 619.84C470.873 622.56 469.513 625.947 469.513 630C469.513 634.053 470.873 637.467 473.593 640.24C476.313 642.96 479.7 644.32 483.753 644.32ZM540.778 610H547.738V650H540.778V644.24C537.952 648.773 533.632 651.04 527.818 651.04C523.125 651.04 519.365 649.573 516.538 646.64C513.712 643.653 512.298 639.627 512.298 634.56V610H519.258V634.16C519.258 637.413 520.138 639.947 521.898 641.76C523.658 643.52 526.085 644.4 529.178 644.4C532.645 644.4 535.445 643.333 537.578 641.2C539.712 639.013 540.778 635.68 540.778 631.2V610ZM564.257 620.8C564.257 622.347 565.03 623.6 566.577 624.56C568.123 625.467 569.99 626.213 572.177 626.8C574.363 627.333 576.55 627.973 578.737 628.72C580.923 629.413 582.79 630.64 584.337 632.4C585.883 634.107 586.657 636.32 586.657 639.04C586.657 642.667 585.243 645.573 582.417 647.76C579.643 649.947 576.07 651.04 571.697 651.04C567.803 651.04 564.47 650.187 561.697 648.48C558.923 646.773 556.95 644.507 555.777 641.68L561.777 638.24C562.417 640.16 563.617 641.68 565.377 642.8C567.137 643.92 569.243 644.48 571.697 644.48C573.99 644.48 575.883 644.053 577.377 643.2C578.87 642.293 579.617 640.907 579.617 639.04C579.617 637.493 578.843 636.267 577.297 635.36C575.75 634.4 573.883 633.653 571.697 633.12C569.51 632.533 567.323 631.867 565.137 631.12C562.95 630.373 561.083 629.147 559.537 627.44C557.99 625.733 557.217 623.547 557.217 620.88C557.217 617.413 558.55 614.56 561.217 612.32C563.937 610.08 567.323 608.96 571.377 608.96C574.63 608.96 577.51 609.707 580.017 611.2C582.577 612.64 584.497 614.667 585.777 617.28L579.937 620.56C578.497 617.147 575.643 615.44 571.377 615.44C569.403 615.44 567.723 615.92 566.337 616.88C564.95 617.787 564.257 619.093 564.257 620.8ZM647.617 620.96C650.177 622.187 652.204 623.947 653.697 626.24C655.244 628.533 656.017 631.173 656.017 634.16C656.017 638.64 654.444 642.4 651.297 645.44C648.151 648.48 644.311 650 639.777 650H615.617V594H638.017C642.391 594 646.097 595.467 649.137 598.4C652.177 601.333 653.697 604.96 653.697 609.28C653.697 614.24 651.671 618.133 647.617 620.96ZM638.017 600.96H623.057V618.08H638.017C640.364 618.08 642.337 617.253 643.937 615.6C645.537 613.947 646.337 611.92 646.337 609.52C646.337 607.173 645.511 605.173 643.857 603.52C642.257 601.813 640.311 600.96 638.017 600.96ZM639.777 643.04C642.284 643.04 644.391 642.16 646.097 640.4C647.804 638.64 648.657 636.48 648.657 633.92C648.657 631.413 647.777 629.28 646.017 627.52C644.311 625.76 642.231 624.88 639.777 624.88H623.057V643.04H639.777ZM698.11 644.96C694.004 649.013 689.017 651.04 683.15 651.04C677.284 651.04 672.297 649.013 668.19 644.96C664.137 640.907 662.11 635.92 662.11 630C662.11 624.08 664.137 619.093 668.19 615.04C672.297 610.987 677.284 608.96 683.15 608.96C689.017 608.96 694.004 610.987 698.11 615.04C702.217 619.093 704.27 624.08 704.27 630C704.27 635.92 702.217 640.907 698.11 644.96ZM683.15 644.24C687.15 644.24 690.51 642.88 693.23 640.16C695.95 637.44 697.31 634.053 697.31 630C697.31 625.947 695.95 622.56 693.23 619.84C690.51 617.12 687.15 615.76 683.15 615.76C679.204 615.76 675.87 617.12 673.15 619.84C670.43 622.56 669.07 625.947 669.07 630C669.07 634.053 670.43 637.44 673.15 640.16C675.87 642.88 679.204 644.24 683.15 644.24ZM745.595 594H752.555V650H745.595V643.12C742.129 648.4 737.089 651.04 730.475 651.04C724.875 651.04 720.102 649.013 716.155 644.96C712.209 640.853 710.235 635.867 710.235 630C710.235 624.133 712.209 619.173 716.155 615.12C720.102 611.013 724.875 608.96 730.475 608.96C737.089 608.96 742.129 611.6 745.595 616.88V594ZM731.355 644.32C735.409 644.32 738.795 642.96 741.515 640.24C744.235 637.467 745.595 634.053 745.595 630C745.595 625.947 744.235 622.56 741.515 619.84C738.795 617.067 735.409 615.68 731.355 615.68C727.355 615.68 723.995 617.067 721.275 619.84C718.555 622.56 717.195 625.947 717.195 630C717.195 634.053 718.555 637.467 721.275 640.24C723.995 642.96 727.355 644.32 731.355 644.32ZM791.02 610H798.46L782.14 652.48C780.434 657.013 778.034 660.453 774.94 662.8C771.9 665.2 768.38 666.267 764.38 666V659.52C769.287 659.893 772.887 657.173 775.18 651.36L775.9 649.84L758.46 610H765.9L779.5 641.36L791.02 610Z"/>
</mask>
<path d="M312.328 651.04C303.848 651.04 296.834 648.24 291.288 642.64C285.794 637.04 283.048 630.16 283.048 622C283.048 613.84 285.794 606.96 291.288 601.36C296.834 595.76 303.848 592.96 312.328 592.96C317.448 592.96 322.141 594.187 326.408 596.64C330.728 599.093 334.088 602.4 336.488 606.56L330.008 610.32C328.408 607.227 326.008 604.773 322.808 602.96C319.661 601.093 316.168 600.16 312.328 600.16C305.874 600.16 300.594 602.24 296.488 606.4C292.434 610.56 290.408 615.76 290.408 622C290.408 628.187 292.434 633.36 296.488 637.52C300.594 641.68 305.874 643.76 312.328 643.76C316.168 643.76 319.661 642.853 322.808 641.04C326.008 639.173 328.408 636.72 330.008 633.68L336.488 637.36C334.141 641.52 330.808 644.853 326.488 647.36C322.168 649.813 317.448 651.04 312.328 651.04ZM377.158 610H384.118V650H377.158V643.12C373.691 648.4 368.651 651.04 362.038 651.04C356.438 651.04 351.664 649.013 347.718 644.96C343.771 640.853 341.798 635.867 341.798 630C341.798 624.133 343.771 619.173 347.718 615.12C351.664 611.013 356.438 608.96 362.038 608.96C368.651 608.96 373.691 611.6 377.158 616.88V610ZM362.918 644.32C366.971 644.32 370.358 642.96 373.078 640.24C375.798 637.467 377.158 634.053 377.158 630C377.158 625.947 375.798 622.56 373.078 619.84C370.358 617.067 366.971 615.68 362.918 615.68C358.918 615.68 355.558 617.067 352.838 619.84C350.118 622.56 348.758 625.947 348.758 630C348.758 634.053 350.118 637.467 352.838 640.24C355.558 642.96 358.918 644.32 362.918 644.32ZM437.863 608.96C442.343 608.96 445.969 610.427 448.743 613.36C451.516 616.24 452.903 620.16 452.903 625.12V650H445.943V625.36C445.943 622.267 445.143 619.867 443.543 618.16C441.943 616.453 439.809 615.6 437.143 615.6C434.156 615.6 431.756 616.613 429.943 618.64C428.183 620.613 427.303 623.653 427.303 627.76V650H420.343V625.36C420.343 622.267 419.569 619.867 418.023 618.16C416.529 616.453 414.476 615.6 411.863 615.6C408.929 615.6 406.476 616.613 404.503 618.64C402.583 620.667 401.623 623.707 401.623 627.76V650H394.663V610H401.623V615.36C404.343 611.093 408.316 608.96 413.543 608.96C418.929 608.96 422.849 611.227 425.303 615.76C428.076 611.227 432.263 608.96 437.863 608.96ZM484.633 608.96C490.233 608.96 495.007 611.013 498.953 615.12C502.9 619.173 504.873 624.133 504.873 630C504.873 635.867 502.9 640.853 498.953 644.96C495.007 649.013 490.233 651.04 484.633 651.04C478.02 651.04 472.98 648.4 469.513 643.12V666H462.553V610H469.513V616.88C472.98 611.6 478.02 608.96 484.633 608.96ZM483.753 644.32C487.753 644.32 491.113 642.96 493.833 640.24C496.553 637.467 497.913 634.053 497.913 630C497.913 625.947 496.553 622.56 493.833 619.84C491.113 617.067 487.753 615.68 483.753 615.68C479.7 615.68 476.313 617.067 473.593 619.84C470.873 622.56 469.513 625.947 469.513 630C469.513 634.053 470.873 637.467 473.593 640.24C476.313 642.96 479.7 644.32 483.753 644.32ZM540.778 610H547.738V650H540.778V644.24C537.952 648.773 533.632 651.04 527.818 651.04C523.125 651.04 519.365 649.573 516.538 646.64C513.712 643.653 512.298 639.627 512.298 634.56V610H519.258V634.16C519.258 637.413 520.138 639.947 521.898 641.76C523.658 643.52 526.085 644.4 529.178 644.4C532.645 644.4 535.445 643.333 537.578 641.2C539.712 639.013 540.778 635.68 540.778 631.2V610ZM564.257 620.8C564.257 622.347 565.03 623.6 566.577 624.56C568.123 625.467 569.99 626.213 572.177 626.8C574.363 627.333 576.55 627.973 578.737 628.72C580.923 629.413 582.79 630.64 584.337 632.4C585.883 634.107 586.657 636.32 586.657 639.04C586.657 642.667 585.243 645.573 582.417 647.76C579.643 649.947 576.07 651.04 571.697 651.04C567.803 651.04 564.47 650.187 561.697 648.48C558.923 646.773 556.95 644.507 555.777 641.68L561.777 638.24C562.417 640.16 563.617 641.68 565.377 642.8C567.137 643.92 569.243 644.48 571.697 644.48C573.99 644.48 575.883 644.053 577.377 643.2C578.87 642.293 579.617 640.907 579.617 639.04C579.617 637.493 578.843 636.267 577.297 635.36C575.75 634.4 573.883 633.653 571.697 633.12C569.51 632.533 567.323 631.867 565.137 631.12C562.95 630.373 561.083 629.147 559.537 627.44C557.99 625.733 557.217 623.547 557.217 620.88C557.217 617.413 558.55 614.56 561.217 612.32C563.937 610.08 567.323 608.96 571.377 608.96C574.63 608.96 577.51 609.707 580.017 611.2C582.577 612.64 584.497 614.667 585.777 617.28L579.937 620.56C578.497 617.147 575.643 615.44 571.377 615.44C569.403 615.44 567.723 615.92 566.337 616.88C564.95 617.787 564.257 619.093 564.257 620.8ZM647.617 620.96C650.177 622.187 652.204 623.947 653.697 626.24C655.244 628.533 656.017 631.173 656.017 634.16C656.017 638.64 654.444 642.4 651.297 645.44C648.151 648.48 644.311 650 639.777 650H615.617V594H638.017C642.391 594 646.097 595.467 649.137 598.4C652.177 601.333 653.697 604.96 653.697 609.28C653.697 614.24 651.671 618.133 647.617 620.96ZM638.017 600.96H623.057V618.08H638.017C640.364 618.08 642.337 617.253 643.937 615.6C645.537 613.947 646.337 611.92 646.337 609.52C646.337 607.173 645.511 605.173 643.857 603.52C642.257 601.813 640.311 600.96 638.017 600.96ZM639.777 643.04C642.284 643.04 644.391 642.16 646.097 640.4C647.804 638.64 648.657 636.48 648.657 633.92C648.657 631.413 647.777 629.28 646.017 627.52C644.311 625.76 642.231 624.88 639.777 624.88H623.057V643.04H639.777ZM698.11 644.96C694.004 649.013 689.017 651.04 683.15 651.04C677.284 651.04 672.297 649.013 668.19 644.96C664.137 640.907 662.11 635.92 662.11 630C662.11 624.08 664.137 619.093 668.19 615.04C672.297 610.987 677.284 608.96 683.15 608.96C689.017 608.96 694.004 610.987 698.11 615.04C702.217 619.093 704.27 624.08 704.27 630C704.27 635.92 702.217 640.907 698.11 644.96ZM683.15 644.24C687.15 644.24 690.51 642.88 693.23 640.16C695.95 637.44 697.31 634.053 697.31 630C697.31 625.947 695.95 622.56 693.23 619.84C690.51 617.12 687.15 615.76 683.15 615.76C679.204 615.76 675.87 617.12 673.15 619.84C670.43 622.56 669.07 625.947 669.07 630C669.07 634.053 670.43 637.44 673.15 640.16C675.87 642.88 679.204 644.24 683.15 644.24ZM745.595 594H752.555V650H745.595V643.12C742.129 648.4 737.089 651.04 730.475 651.04C724.875 651.04 720.102 649.013 716.155 644.96C712.209 640.853 710.235 635.867 710.235 630C710.235 624.133 712.209 619.173 716.155 615.12C720.102 611.013 724.875 608.96 730.475 608.96C737.089 608.96 742.129 611.6 745.595 616.88V594ZM731.355 644.32C735.409 644.32 738.795 642.96 741.515 640.24C744.235 637.467 745.595 634.053 745.595 630C745.595 625.947 744.235 622.56 741.515 619.84C738.795 617.067 735.409 615.68 731.355 615.68C727.355 615.68 723.995 617.067 721.275 619.84C718.555 622.56 717.195 625.947 717.195 630C717.195 634.053 718.555 637.467 721.275 640.24C723.995 642.96 727.355 644.32 731.355 644.32ZM791.02 610H798.46L782.14 652.48C780.434 657.013 778.034 660.453 774.94 662.8C771.9 665.2 768.38 666.267 764.38 666V659.52C769.287 659.893 772.887 657.173 775.18 651.36L775.9 649.84L758.46 610H765.9L779.5 641.36L791.02 610Z" fill="#002B46"/>
<path d="M291.288 642.64L290.574 643.34L290.577 643.344L291.288 642.64ZM291.288 601.36L290.577 600.656L290.574 600.66L291.288 601.36ZM326.408 596.64L325.909 597.507L325.914 597.51L326.408 596.64ZM336.488 606.56L336.99 607.425L337.852 606.924L337.354 606.06L336.488 606.56ZM330.008 610.32L329.12 610.779L329.602 611.712L330.51 611.185L330.008 610.32ZM322.808 602.96L322.298 603.82L322.306 603.825L322.315 603.83L322.808 602.96ZM296.488 606.4L295.776 605.697L295.772 605.702L296.488 606.4ZM296.488 637.52L295.772 638.218L295.776 638.223L296.488 637.52ZM322.808 641.04L323.307 641.906L323.312 641.904L322.808 641.04ZM330.008 633.68L330.502 632.81L329.604 632.301L329.123 633.214L330.008 633.68ZM336.488 637.36L337.359 637.851L337.849 636.983L336.982 636.49L336.488 637.36ZM326.488 647.36L326.982 648.23L326.99 648.225L326.488 647.36ZM312.328 651.04V650.04C304.092 650.04 297.342 647.331 291.998 641.936L291.288 642.64L290.577 643.344C296.327 649.149 303.603 652.04 312.328 652.04V651.04ZM291.288 642.64L292.002 641.94C286.7 636.535 284.048 629.91 284.048 622H283.048H282.048C282.048 630.41 284.889 637.545 290.574 643.34L291.288 642.64ZM283.048 622H284.048C284.048 614.09 286.7 607.465 292.002 602.06L291.288 601.36L290.574 600.66C284.889 606.455 282.048 613.59 282.048 622H283.048ZM291.288 601.36L291.998 602.064C297.342 596.669 304.092 593.96 312.328 593.96V592.96V591.96C303.603 591.96 296.327 594.851 290.577 600.656L291.288 601.36ZM312.328 592.96V593.96C317.28 593.96 321.801 595.144 325.909 597.507L326.408 596.64L326.906 595.773C322.482 593.229 317.615 591.96 312.328 591.96V592.96ZM326.408 596.64L325.914 597.51C330.085 599.878 333.314 603.059 335.622 607.06L336.488 606.56L337.354 606.06C334.862 601.741 331.371 598.309 326.902 595.77L326.408 596.64ZM336.488 606.56L335.986 605.695L329.506 609.455L330.008 610.32L330.51 611.185L336.99 607.425L336.488 606.56ZM330.008 610.32L330.896 609.861C329.202 606.585 326.66 603.993 323.301 602.09L322.808 602.96L322.315 603.83C325.356 605.553 327.614 607.868 329.12 610.779L330.008 610.32ZM322.808 602.96L323.318 602.1C320.009 600.137 316.338 599.16 312.328 599.16V600.16V601.16C315.998 601.16 319.313 602.05 322.298 603.82L322.808 602.96ZM312.328 600.16V599.16C305.638 599.16 300.091 601.326 295.776 605.697L296.488 606.4L297.199 607.103C301.098 603.154 306.111 601.16 312.328 601.16V600.16ZM296.488 606.4L295.772 605.702C291.522 610.064 289.408 615.521 289.408 622H290.408H291.408C291.408 615.999 293.347 611.056 297.204 607.098L296.488 606.4ZM290.408 622H289.408C289.408 628.429 291.524 633.858 295.772 638.218L296.488 637.52L297.204 636.822C293.345 632.862 291.408 627.945 291.408 622H290.408ZM296.488 637.52L295.776 638.223C300.091 642.594 305.638 644.76 312.328 644.76V643.76V642.76C306.111 642.76 301.098 640.766 297.199 636.817L296.488 637.52ZM312.328 643.76V644.76C316.333 644.76 320 643.812 323.307 641.906L322.808 641.04L322.309 640.174C319.322 641.894 316.003 642.76 312.328 642.76V643.76ZM322.808 641.04L323.312 641.904C326.66 639.95 329.199 637.365 330.893 634.146L330.008 633.68L329.123 633.214C327.617 636.075 325.355 638.396 322.304 640.176L322.808 641.04ZM330.008 633.68L329.514 634.55L335.994 638.23L336.488 637.36L336.982 636.49L330.502 632.81L330.008 633.68ZM336.488 637.36L335.617 636.869C333.362 640.866 330.159 644.074 325.986 646.495L326.488 647.36L326.99 648.225C331.456 645.633 334.92 642.174 337.359 637.851L336.488 637.36ZM326.488 647.36L325.994 646.49C321.829 648.856 317.28 650.04 312.328 650.04V651.04V652.04C317.615 652.04 322.506 650.771 326.982 648.23L326.488 647.36ZM377.158 610V609H376.158V610H377.158ZM384.118 610H385.118V609H384.118V610ZM384.118 650V651H385.118V650H384.118ZM377.158 650H376.158V651H377.158V650ZM377.158 643.12H378.158V639.775L376.322 642.571L377.158 643.12ZM347.718 644.96L346.997 645.653L347.001 645.658L347.718 644.96ZM347.718 615.12L348.434 615.818L348.439 615.813L347.718 615.12ZM377.158 616.88L376.322 617.429L378.158 620.225V616.88H377.158ZM373.078 640.24L373.785 640.947L373.792 640.94L373.078 640.24ZM373.078 619.84L372.364 620.54L372.371 620.547L373.078 619.84ZM352.838 619.84L353.545 620.547L353.552 620.54L352.838 619.84ZM352.838 640.24L352.124 640.94L352.131 640.947L352.838 640.24ZM377.158 610V611H384.118V610V609H377.158V610ZM384.118 610H383.118V650H384.118H385.118V610H384.118ZM384.118 650V649H377.158V650V651H384.118V650ZM377.158 650H378.158V643.12H377.158H376.158V650H377.158ZM377.158 643.12L376.322 642.571C373.05 647.554 368.333 650.04 362.038 650.04V651.04V652.04C368.969 652.04 374.332 649.246 377.994 643.669L377.158 643.12ZM362.038 651.04V650.04C356.711 650.04 352.195 648.125 348.434 644.262L347.718 644.96L347.001 645.658C351.134 649.902 356.165 652.04 362.038 652.04V651.04ZM347.718 644.96L348.439 644.267C344.677 640.353 342.798 635.617 342.798 630H341.798H340.798C340.798 636.116 342.865 641.354 346.997 645.653L347.718 644.96ZM341.798 630H342.798C342.798 624.383 344.677 619.677 348.434 615.818L347.718 615.12L347.001 614.422C342.866 618.67 340.798 623.883 340.798 630H341.798ZM347.718 615.12L348.439 615.813C352.201 611.899 356.715 609.96 362.038 609.96V608.96V607.96C356.16 607.96 351.128 610.128 346.997 614.427L347.718 615.12ZM362.038 608.96V609.96C368.333 609.96 373.05 612.446 376.322 617.429L377.158 616.88L377.994 616.331C374.332 610.754 368.969 607.96 362.038 607.96V608.96ZM377.158 616.88H378.158V610H377.158H376.158V616.88H377.158ZM362.918 644.32V645.32C367.221 645.32 370.866 643.866 373.785 640.947L373.078 640.24L372.371 639.533C369.849 642.054 366.722 643.32 362.918 643.32V644.32ZM373.078 640.24L373.792 640.94C376.704 637.971 378.158 634.303 378.158 630H377.158H376.158C376.158 633.804 374.892 636.962 372.364 639.54L373.078 640.24ZM377.158 630H378.158C378.158 625.697 376.703 622.051 373.785 619.133L373.078 619.84L372.371 620.547C374.892 623.069 376.158 626.196 376.158 630H377.158ZM373.078 619.84L373.792 619.14C370.875 616.166 367.227 614.68 362.918 614.68V615.68V616.68C366.716 616.68 369.841 617.968 372.364 620.54L373.078 619.84ZM362.918 615.68V614.68C358.658 614.68 355.038 616.168 352.124 619.14L352.838 619.84L353.552 620.54C356.078 617.965 359.177 616.68 362.918 616.68V615.68ZM352.838 619.84L352.131 619.133C349.212 622.051 347.758 625.697 347.758 630H348.758H349.758C349.758 626.196 351.023 623.069 353.545 620.547L352.838 619.84ZM348.758 630H347.758C347.758 634.303 349.212 637.971 352.124 640.94L352.838 640.24L353.552 639.54C351.024 636.962 349.758 633.804 349.758 630H348.758ZM352.838 640.24L352.131 640.947C355.046 643.863 358.664 645.32 362.918 645.32V644.32V643.32C359.171 643.32 356.069 642.057 353.545 639.533L352.838 640.24ZM448.743 613.36L448.016 614.047L448.022 614.054L448.743 613.36ZM452.903 650V651H453.903V650H452.903ZM445.943 650H444.943V651H445.943V650ZM443.543 618.16L444.272 617.476L444.272 617.476L443.543 618.16ZM429.943 618.64L429.198 617.973L429.197 617.974L429.943 618.64ZM427.303 650V651H428.303V650H427.303ZM420.343 650H419.343V651H420.343V650ZM418.023 618.16L417.27 618.819L417.276 618.825L417.282 618.832L418.023 618.16ZM404.503 618.64L403.786 617.942L403.777 617.952L404.503 618.64ZM401.623 650V651H402.623V650H401.623ZM394.663 650H393.663V651H394.663V650ZM394.663 610V609H393.663V610H394.663ZM401.623 610H402.623V609H401.623V610ZM401.623 615.36H400.623V618.789L402.466 615.898L401.623 615.36ZM425.303 615.76L424.423 616.236L425.25 617.763L426.156 616.282L425.303 615.76ZM437.863 608.96V609.96C442.101 609.96 445.453 611.336 448.016 614.047L448.743 613.36L449.469 612.673C446.485 609.517 442.584 607.96 437.863 607.96V608.96ZM448.743 613.36L448.022 614.054C450.576 616.705 451.903 620.353 451.903 625.12H452.903H453.903C453.903 619.967 452.457 615.775 449.463 612.666L448.743 613.36ZM452.903 625.12H451.903V650H452.903H453.903V625.12H452.903ZM452.903 650V649H445.943V650V651H452.903V650ZM445.943 650H446.943V625.36H445.943H444.943V650H445.943ZM445.943 625.36H446.943C446.943 622.097 446.096 619.421 444.272 617.476L443.543 618.16L442.813 618.844C444.19 620.312 444.943 622.437 444.943 625.36H445.943ZM443.543 618.16L444.272 617.476C442.456 615.539 440.043 614.6 437.143 614.6V615.6V616.6C439.576 616.6 441.43 617.368 442.813 618.844L443.543 618.16ZM437.143 615.6V614.6C433.903 614.6 431.221 615.712 429.198 617.973L429.943 618.64L430.688 619.307C432.292 617.514 434.409 616.6 437.143 616.6V615.6ZM429.943 618.64L429.197 617.974C427.203 620.209 426.303 623.538 426.303 627.76H427.303H428.303C428.303 623.769 429.162 621.018 430.689 619.306L429.943 618.64ZM427.303 627.76H426.303V650H427.303H428.303V627.76H427.303ZM427.303 650V649H420.343V650V651H427.303V650ZM420.343 650H421.343V625.36H420.343H419.343V650H420.343ZM420.343 625.36H421.343C421.343 622.105 420.527 619.434 418.764 617.488L418.023 618.16L417.282 618.832C418.612 620.299 419.343 622.428 419.343 625.36H420.343ZM418.023 618.16L418.775 617.501C417.062 615.544 414.716 614.6 411.863 614.6V615.6V616.6C414.236 616.6 415.997 617.363 417.27 618.819L418.023 618.16ZM411.863 615.6V614.6C408.671 614.6 405.956 615.715 403.786 617.942L404.503 618.64L405.219 619.338C406.997 617.512 409.188 616.6 411.863 616.6V615.6ZM404.503 618.64L403.777 617.952C401.615 620.234 400.623 623.566 400.623 627.76H401.623H402.623C402.623 623.848 403.55 621.099 405.229 619.328L404.503 618.64ZM401.623 627.76H400.623V650H401.623H402.623V627.76H401.623ZM401.623 650V649H394.663V650V651H401.623V650ZM394.663 650H395.663V610H394.663H393.663V650H394.663ZM394.663 610V611H401.623V610V609H394.663V610ZM401.623 610H400.623V615.36H401.623H402.623V610H401.623ZM401.623 615.36L402.466 615.898C404.995 611.93 408.644 609.96 413.543 609.96V608.96V607.96C407.988 607.96 403.69 610.256 400.78 614.822L401.623 615.36ZM413.543 608.96V609.96C416.094 609.96 418.241 610.496 420.022 611.526C421.801 612.554 423.272 614.109 424.423 616.236L425.303 615.76L426.182 615.284C424.88 612.878 423.164 611.032 421.023 609.794C418.885 608.558 416.378 607.96 413.543 607.96V608.96ZM425.303 615.76L426.156 616.282C428.736 612.064 432.588 609.96 437.863 609.96V608.96V607.96C431.937 607.96 427.416 610.389 424.45 615.238L425.303 615.76ZM498.953 615.12L498.232 615.813L498.237 615.818L498.953 615.12ZM498.953 644.96L499.67 645.658L499.674 645.653L498.953 644.96ZM469.513 643.12L470.349 642.571L468.513 639.775V643.12H469.513ZM469.513 666V667H470.513V666H469.513ZM462.553 666H461.553V667H462.553V666ZM462.553 610V609H461.553V610H462.553ZM469.513 610H470.513V609H469.513V610ZM469.513 616.88H468.513V620.225L470.349 617.429L469.513 616.88ZM493.833 640.24L494.541 640.947L494.547 640.94L493.833 640.24ZM493.833 619.84L493.119 620.54L493.126 620.547L493.833 619.84ZM473.593 619.84L474.301 620.547L474.307 620.54L473.593 619.84ZM473.593 640.24L472.879 640.94L472.886 640.947L473.593 640.24ZM484.633 608.96V609.96C489.956 609.96 494.471 611.899 498.232 615.813L498.953 615.12L499.674 614.427C495.543 610.128 490.511 607.96 484.633 607.96V608.96ZM498.953 615.12L498.237 615.818C501.994 619.677 503.873 624.383 503.873 630H504.873H505.873C505.873 623.883 503.806 618.67 499.67 614.422L498.953 615.12ZM504.873 630H503.873C503.873 635.617 501.994 640.353 498.232 644.267L498.953 644.96L499.674 645.653C503.806 641.354 505.873 636.116 505.873 630H504.873ZM498.953 644.96L498.237 644.262C494.476 648.125 489.96 650.04 484.633 650.04V651.04V652.04C490.506 652.04 495.537 649.902 499.67 645.658L498.953 644.96ZM484.633 651.04V650.04C478.338 650.04 473.621 647.554 470.349 642.571L469.513 643.12L468.678 643.669C472.339 649.246 477.702 652.04 484.633 652.04V651.04ZM469.513 643.12H468.513V666H469.513H470.513V643.12H469.513ZM469.513 666V665H462.553V666V667H469.513V666ZM462.553 666H463.553V610H462.553H461.553V666H462.553ZM462.553 610V611H469.513V610V609H462.553V610ZM469.513 610H468.513V616.88H469.513H470.513V610H469.513ZM469.513 616.88L470.349 617.429C473.621 612.446 478.338 609.96 484.633 609.96V608.96V607.96C477.702 607.96 472.339 610.754 468.678 616.331L469.513 616.88ZM483.753 644.32V645.32C488.007 645.32 491.625 643.863 494.541 640.947L493.833 640.24L493.126 639.533C490.602 642.057 487.5 643.32 483.753 643.32V644.32ZM493.833 640.24L494.547 640.94C497.459 637.971 498.913 634.303 498.913 630H497.913H496.913C496.913 633.804 495.647 636.962 493.12 639.54L493.833 640.24ZM497.913 630H498.913C498.913 625.697 497.459 622.051 494.541 619.133L493.833 619.84L493.126 620.547C495.648 623.069 496.913 626.196 496.913 630H497.913ZM493.833 619.84L494.547 619.14C491.633 616.168 488.013 614.68 483.753 614.68V615.68V616.68C487.494 616.68 490.594 617.965 493.12 620.54L493.833 619.84ZM483.753 615.68V614.68C479.445 614.68 475.797 616.166 472.88 619.14L473.593 619.84L474.307 620.54C476.83 617.968 479.956 616.68 483.753 616.68V615.68ZM473.593 619.84L472.886 619.133C469.968 622.051 468.513 625.697 468.513 630H469.513H470.513C470.513 626.196 471.779 623.069 474.301 620.547L473.593 619.84ZM469.513 630H468.513C468.513 634.303 469.967 637.971 472.88 640.94L473.593 640.24L474.307 639.54C471.779 636.962 470.513 633.804 470.513 630H469.513ZM473.593 640.24L472.886 640.947C475.805 643.866 479.451 645.32 483.753 645.32V644.32V643.32C479.949 643.32 476.822 642.054 474.301 639.533L473.593 640.24ZM540.778 610V609H539.778V610H540.778ZM547.738 610H548.738V609H547.738V610ZM547.738 650V651H548.738V650H547.738ZM540.778 650H539.778V651H540.778V650ZM540.778 644.24H541.778V640.746L539.93 643.711L540.778 644.24ZM516.538 646.64L515.812 647.327L515.818 647.334L516.538 646.64ZM512.298 610V609H511.298V610H512.298ZM519.258 610H520.258V609H519.258V610ZM521.898 641.76L521.181 642.456L521.186 642.462L521.191 642.467L521.898 641.76ZM537.578 641.2L538.286 641.907L538.294 641.898L537.578 641.2ZM540.778 610V611H547.738V610V609H540.778V610ZM547.738 610H546.738V650H547.738H548.738V610H547.738ZM547.738 650V649H540.778V650V651H547.738V650ZM540.778 650H541.778V644.24H540.778H539.778V650H540.778ZM540.778 644.24L539.93 643.711C537.304 647.922 533.323 650.04 527.818 650.04V651.04V652.04C533.94 652.04 538.599 649.625 541.627 644.769L540.778 644.24ZM527.818 651.04V650.04C523.352 650.04 519.868 648.654 517.259 645.946L516.538 646.64L515.818 647.334C518.863 650.493 522.899 652.04 527.818 652.04V651.04ZM516.538 646.64L517.265 645.953C514.653 643.193 513.298 639.433 513.298 634.56H512.298H511.298C511.298 639.82 512.771 644.114 515.812 647.327L516.538 646.64ZM512.298 634.56H513.298V610H512.298H511.298V634.56H512.298ZM512.298 610V611H519.258V610V609H512.298V610ZM519.258 610H518.258V634.16H519.258H520.258V610H519.258ZM519.258 634.16H518.258C518.258 637.596 519.192 640.407 521.181 642.456L521.898 641.76L522.616 641.064C521.085 639.486 520.258 637.231 520.258 634.16H519.258ZM521.898 641.76L521.191 642.467C523.182 644.458 525.888 645.4 529.178 645.4V644.4V643.4C526.282 643.4 524.135 642.582 522.606 641.053L521.898 641.76ZM529.178 644.4V645.4C532.867 645.4 535.936 644.256 538.286 641.907L537.578 641.2L536.871 640.493C534.954 642.41 532.423 643.4 529.178 643.4V644.4ZM537.578 641.2L538.294 641.898C540.68 639.453 541.778 635.82 541.778 631.2H540.778H539.778C539.778 635.54 538.744 638.573 536.863 640.502L537.578 641.2ZM540.778 631.2H541.778V610H540.778H539.778V631.2H540.778ZM566.577 624.56L566.049 625.41L566.06 625.416L566.071 625.423L566.577 624.56ZM572.177 626.8L571.917 627.766L571.928 627.769L571.94 627.772L572.177 626.8ZM578.737 628.72L578.413 629.666L578.424 629.67L578.434 629.673L578.737 628.72ZM584.337 632.4L583.585 633.06L583.59 633.066L583.596 633.072L584.337 632.4ZM582.417 647.76L581.805 646.969L581.797 646.975L582.417 647.76ZM561.697 648.48L561.172 649.332L561.172 649.332L561.697 648.48ZM555.777 641.68L555.279 640.812L554.515 641.25L554.853 642.063L555.777 641.68ZM561.777 638.24L562.725 637.924L562.339 636.765L561.279 637.372L561.777 638.24ZM565.377 642.8L564.84 643.644L564.84 643.644L565.377 642.8ZM577.377 643.2L577.873 644.068L577.884 644.062L577.896 644.055L577.377 643.2ZM577.297 635.36L576.769 636.21L576.78 636.216L576.791 636.223L577.297 635.36ZM571.697 633.12L571.437 634.086L571.448 634.089L571.46 634.092L571.697 633.12ZM565.137 631.12L565.46 630.174L565.46 630.174L565.137 631.12ZM559.537 627.44L558.796 628.112L558.796 628.112L559.537 627.44ZM561.217 612.32L560.581 611.548L560.573 611.554L561.217 612.32ZM580.017 611.2L579.505 612.059L579.515 612.065L579.526 612.072L580.017 611.2ZM585.777 617.28L586.266 618.152L587.09 617.689L586.675 616.84L585.777 617.28ZM579.937 620.56L579.015 620.949L579.45 621.98L580.426 621.432L579.937 620.56ZM566.337 616.88L566.884 617.717L566.895 617.71L566.906 617.702L566.337 616.88ZM564.257 620.8H563.257C563.257 622.759 564.27 624.305 566.049 625.41L566.577 624.56L567.104 623.71C565.79 622.895 565.257 621.935 565.257 620.8H564.257ZM566.577 624.56L566.071 625.423C567.712 626.385 569.666 627.162 571.917 627.766L572.177 626.8L572.436 625.834C570.314 625.265 568.535 624.549 567.082 623.697L566.577 624.56ZM572.177 626.8L571.94 627.772C574.096 628.298 576.254 628.929 578.413 629.666L578.737 628.72L579.06 627.774C576.845 627.018 574.63 626.369 572.414 625.828L572.177 626.8ZM578.737 628.72L578.434 629.673C580.444 630.31 582.156 631.434 583.585 633.06L584.337 632.4L585.088 631.74C583.424 629.846 581.403 628.516 579.039 627.767L578.737 628.72ZM584.337 632.4L583.596 633.072C584.946 634.562 585.657 636.521 585.657 639.04H586.657H587.657C587.657 636.119 586.82 633.652 585.078 631.728L584.337 632.4ZM586.657 639.04H585.657C585.657 642.363 584.382 644.975 581.805 646.969L582.417 647.76L583.028 648.551C586.104 646.172 587.657 642.971 587.657 639.04H586.657ZM582.417 647.76L581.797 646.975C579.239 648.992 575.9 650.04 571.697 650.04V651.04V652.04C576.24 652.04 580.047 650.902 583.036 648.545L582.417 647.76ZM571.697 651.04V650.04C567.952 650.04 564.808 649.221 562.221 647.628L561.697 648.48L561.172 649.332C564.132 651.153 567.655 652.04 571.697 652.04V651.04ZM561.697 648.48L562.221 647.628C559.614 646.024 557.788 643.916 556.7 641.297L555.777 641.68L554.853 642.063C556.112 645.097 558.232 647.522 561.172 649.332L561.697 648.48ZM555.777 641.68L556.274 642.548L562.274 639.108L561.777 638.24L561.279 637.372L555.279 640.812L555.777 641.68ZM561.777 638.24L560.828 638.556C561.543 640.701 562.892 642.404 564.84 643.644L565.377 642.8L565.913 641.956C564.341 640.956 563.29 639.619 562.725 637.924L561.777 638.24ZM565.377 642.8L564.84 643.644C566.787 644.883 569.087 645.48 571.697 645.48V644.48V643.48C569.399 643.48 567.487 642.957 565.913 641.956L565.377 642.8ZM571.697 644.48V645.48C574.108 645.48 576.186 645.032 577.873 644.068L577.377 643.2L576.88 642.332C575.58 643.075 573.872 643.48 571.697 643.48V644.48ZM577.377 643.2L577.896 644.055C579.711 642.952 580.617 641.227 580.617 639.04H579.617H578.617C578.617 640.586 578.028 641.634 576.858 642.345L577.377 643.2ZM579.617 639.04H580.617C580.617 637.076 579.597 635.549 577.802 634.497L577.297 635.36L576.791 636.223C578.089 636.984 578.617 637.911 578.617 639.04H579.617ZM577.297 635.36L577.824 634.51C576.169 633.483 574.2 632.701 571.934 632.148L571.697 633.12L571.46 634.092C573.567 634.605 575.331 635.317 576.769 636.21L577.297 635.36ZM571.697 633.12L571.956 632.154C569.791 631.573 567.626 630.913 565.46 630.174L565.137 631.12L564.813 632.066C567.021 632.82 569.229 633.493 571.437 634.086L571.697 633.12ZM565.137 631.12L565.46 630.174C563.433 629.482 561.71 628.349 560.278 626.768L559.537 627.44L558.796 628.112C560.456 629.944 562.467 631.265 564.813 632.066L565.137 631.12ZM559.537 627.44L560.278 626.768C558.924 625.275 558.217 623.34 558.217 620.88H557.217H556.217C556.217 623.753 557.056 626.192 558.796 628.112L559.537 627.44ZM557.217 620.88H558.217C558.217 617.71 559.418 615.137 561.86 613.086L561.217 612.32L560.573 611.554C557.682 613.983 556.217 617.116 556.217 620.88H557.217ZM561.217 612.32L561.852 613.092C564.367 611.021 567.518 609.96 571.377 609.96V608.96V607.96C567.128 607.96 563.506 609.139 560.581 611.548L561.217 612.32ZM571.377 608.96V609.96C574.471 609.96 577.17 610.668 579.505 612.059L580.017 611.2L580.528 610.341C577.85 608.745 574.789 607.96 571.377 607.96V608.96ZM580.017 611.2L579.526 612.072C581.912 613.413 583.688 615.29 584.879 617.72L585.777 617.28L586.675 616.84C585.305 614.043 583.242 611.867 580.507 610.328L580.017 611.2ZM585.777 617.28L585.287 616.408L579.447 619.688L579.937 620.56L580.426 621.432L586.266 618.152L585.777 617.28ZM579.937 620.56L580.858 620.171C580.065 618.292 578.86 616.837 577.23 615.862C575.61 614.893 573.64 614.44 571.377 614.44V615.44V616.44C573.379 616.44 574.97 616.84 576.203 617.578C577.427 618.31 578.368 619.414 579.015 620.949L579.937 620.56ZM571.377 615.44V614.44C569.235 614.44 567.348 614.963 565.767 616.058L566.337 616.88L566.906 617.702C568.098 616.877 569.571 616.44 571.377 616.44V615.44ZM566.337 616.88L565.789 616.043C564.11 617.141 563.257 618.768 563.257 620.8H564.257H565.257C565.257 619.419 565.79 618.432 566.884 617.717L566.337 616.88ZM647.617 620.96L647.045 620.14L645.638 621.121L647.185 621.862L647.617 620.96ZM653.697 626.24L652.859 626.786L652.864 626.792L652.868 626.799L653.697 626.24ZM615.617 650H614.617V651H615.617V650ZM615.617 594V593H614.617V594H615.617ZM649.137 598.4L649.832 597.68L649.832 597.68L649.137 598.4ZM623.057 600.96V599.96H622.057V600.96H623.057ZM623.057 618.08H622.057V619.08H623.057V618.08ZM643.937 615.6L644.656 616.295L644.656 616.295L643.937 615.6ZM643.857 603.52L643.128 604.204L643.139 604.216L643.15 604.227L643.857 603.52ZM646.097 640.4L646.815 641.096L646.815 641.096L646.097 640.4ZM646.017 627.52L645.299 628.216L645.305 628.222L645.31 628.227L646.017 627.52ZM623.057 624.88V623.88H622.057V624.88H623.057ZM623.057 643.04H622.057V644.04H623.057V643.04ZM647.617 620.96L647.185 621.862C649.586 623.012 651.47 624.652 652.859 626.786L653.697 626.24L654.535 625.694C652.938 623.241 650.768 621.361 648.049 620.058L647.617 620.96ZM653.697 626.24L652.868 626.799C654.294 628.914 655.017 631.356 655.017 634.16H656.017H657.017C657.017 630.991 656.193 628.153 654.526 625.681L653.697 626.24ZM656.017 634.16H655.017C655.017 638.376 653.549 641.874 650.602 644.721L651.297 645.44L651.992 646.159C655.339 642.926 657.017 638.904 657.017 634.16H656.017ZM651.297 645.44L650.602 644.721C647.65 647.574 644.062 649 639.777 649V650V651C644.559 651 648.652 649.386 651.992 646.159L651.297 645.44ZM639.777 650V649H615.617V650V651H639.777V650ZM615.617 650H616.617V594H615.617H614.617V650H615.617ZM615.617 594V595H638.017V594V593H615.617V594ZM638.017 594V595C642.142 595 645.596 596.373 648.443 599.12L649.137 598.4L649.832 597.68C646.598 594.56 642.639 593 638.017 593V594ZM649.137 598.4L648.443 599.12C651.283 601.86 652.697 605.224 652.697 609.28H653.697H654.697C654.697 604.696 653.072 600.807 649.832 597.68L649.137 598.4ZM653.697 609.28H652.697C652.697 613.915 650.829 617.501 647.045 620.14L647.617 620.96L648.189 621.78C652.512 618.766 654.697 614.565 654.697 609.28H653.697ZM638.017 600.96V599.96H623.057V600.96V601.96H638.017V600.96ZM623.057 600.96H622.057V618.08H623.057H624.057V600.96H623.057ZM623.057 618.08V619.08H638.017V618.08V617.08H623.057V618.08ZM638.017 618.08V619.08C640.629 619.08 642.863 618.148 644.656 616.295L643.937 615.6L643.219 614.905C641.811 616.359 640.099 617.08 638.017 617.08V618.08ZM643.937 615.6L644.656 616.295C646.445 614.447 647.337 612.167 647.337 609.52H646.337H645.337C645.337 611.673 644.63 613.446 643.219 614.905L643.937 615.6ZM646.337 609.52H647.337C647.337 606.909 646.406 604.655 644.564 602.813L643.857 603.52L643.15 604.227C644.615 605.692 645.337 607.437 645.337 609.52H646.337ZM643.857 603.52L644.587 602.836C642.802 600.932 640.593 599.96 638.017 599.96V600.96V601.96C640.028 601.96 641.712 602.694 643.128 604.204L643.857 603.52ZM639.777 643.04V644.04C642.548 644.04 644.915 643.055 646.815 641.096L646.097 640.4L645.379 639.704C643.866 641.265 642.02 642.04 639.777 642.04V643.04ZM646.097 640.4L646.815 641.096C648.711 639.141 649.657 636.727 649.657 633.92H648.657H647.657C647.657 636.233 646.896 638.139 645.379 639.704L646.097 640.4ZM648.657 633.92H649.657C649.657 631.15 648.673 628.762 646.724 626.813L646.017 627.52L645.31 628.227C646.881 629.798 647.657 631.676 647.657 633.92H648.657ZM646.017 627.52L646.735 626.824C644.84 624.869 642.501 623.88 639.777 623.88V624.88V625.88C641.96 625.88 643.781 626.651 645.299 628.216L646.017 627.52ZM639.777 624.88V623.88H623.057V624.88V625.88H639.777V624.88ZM623.057 624.88H622.057V643.04H623.057H624.057V624.88H623.057ZM623.057 643.04V644.04H639.777V643.04V642.04H623.057V643.04ZM698.11 644.96L698.813 645.672L698.813 645.672L698.11 644.96ZM668.19 644.96L667.483 645.667L667.488 645.672L668.19 644.96ZM668.19 615.04L667.488 614.328L667.483 614.333L668.19 615.04ZM698.11 615.04L698.813 614.328L698.813 614.328L698.11 615.04ZM693.23 640.16L693.937 640.867L693.937 640.867L693.23 640.16ZM693.23 619.84L692.523 620.547L692.523 620.547L693.23 619.84ZM673.15 619.84L673.857 620.547L673.857 620.547L673.15 619.84ZM673.15 640.16L673.857 639.453L673.857 639.453L673.15 640.16ZM698.11 644.96L697.408 644.248C693.492 648.113 688.759 650.04 683.15 650.04V651.04V652.04C689.275 652.04 694.515 649.913 698.813 645.672L698.11 644.96ZM683.15 651.04V650.04C677.542 650.04 672.809 648.113 668.893 644.248L668.19 644.96L667.488 645.672C671.785 649.913 677.026 652.04 683.15 652.04V651.04ZM668.19 644.96L668.897 644.253C665.038 640.394 663.11 635.664 663.11 630H662.11H661.11C661.11 636.176 663.236 641.419 667.483 645.667L668.19 644.96ZM662.11 630H663.11C663.11 624.336 665.038 619.606 668.897 615.747L668.19 615.04L667.483 614.333C663.236 618.581 661.11 623.824 661.11 630H662.11ZM668.19 615.04L668.893 615.752C672.809 611.887 677.542 609.96 683.15 609.96V608.96V607.96C677.026 607.96 671.785 610.087 667.488 614.328L668.19 615.04ZM683.15 608.96V609.96C688.759 609.96 693.492 611.887 697.408 615.752L698.11 615.04L698.813 614.328C694.515 610.087 689.275 607.96 683.15 607.96V608.96ZM698.11 615.04L697.408 615.752C701.319 619.612 703.27 624.34 703.27 630H704.27H705.27C705.27 623.82 703.115 618.575 698.813 614.328L698.11 615.04ZM704.27 630H703.27C703.27 635.66 701.319 640.388 697.408 644.248L698.11 644.96L698.813 645.672C703.115 641.425 705.27 636.18 705.27 630H704.27ZM683.15 644.24V645.24C687.404 645.24 691.022 643.783 693.937 640.867L693.23 640.16L692.523 639.453C689.999 641.977 686.897 643.24 683.15 643.24V644.24ZM693.23 640.16L693.937 640.867C696.856 637.949 698.31 634.303 698.31 630H697.31H696.31C696.31 633.804 695.045 636.931 692.523 639.453L693.23 640.16ZM697.31 630H698.31C698.31 625.697 696.856 622.051 693.937 619.133L693.23 619.84L692.523 620.547C695.045 623.069 696.31 626.196 696.31 630H697.31ZM693.23 619.84L693.937 619.133C691.022 616.217 687.404 614.76 683.15 614.76V615.76V616.76C686.897 616.76 689.999 618.023 692.523 620.547L693.23 619.84ZM683.15 615.76V614.76C678.946 614.76 675.356 616.22 672.443 619.133L673.15 619.84L673.857 620.547C676.384 618.02 679.461 616.76 683.15 616.76V615.76ZM673.15 619.84L672.443 619.133C669.525 622.051 668.07 625.697 668.07 630H669.07H670.07C670.07 626.196 671.336 623.069 673.857 620.547L673.15 619.84ZM669.07 630H668.07C668.07 634.303 669.525 637.949 672.443 640.867L673.15 640.16L673.857 639.453C671.336 636.931 670.07 633.804 670.07 630H669.07ZM673.15 640.16L672.443 640.867C675.356 643.78 678.946 645.24 683.15 645.24V644.24V643.24C679.461 643.24 676.384 641.98 673.857 639.453L673.15 640.16ZM745.595 594V593H744.595V594H745.595ZM752.555 594H753.555V593H752.555V594ZM752.555 650V651H753.555V650H752.555ZM745.595 650H744.595V651H745.595V650ZM745.595 643.12H746.595V639.775L744.759 642.571L745.595 643.12ZM716.155 644.96L715.434 645.653L715.439 645.658L716.155 644.96ZM716.155 615.12L716.872 615.818L716.876 615.813L716.155 615.12ZM745.595 616.88L744.759 617.429L746.595 620.225V616.88H745.595ZM741.515 640.24L742.222 640.947L742.229 640.94L741.515 640.24ZM741.515 619.84L740.801 620.54L740.808 620.547L741.515 619.84ZM721.275 619.84L721.982 620.547L721.989 620.54L721.275 619.84ZM721.275 640.24L720.561 640.94L720.568 640.947L721.275 640.24ZM745.595 594V595H752.555V594V593H745.595V594ZM752.555 594H751.555V650H752.555H753.555V594H752.555ZM752.555 650V649H745.595V650V651H752.555V650ZM745.595 650H746.595V643.12H745.595H744.595V650H745.595ZM745.595 643.12L744.759 642.571C741.488 647.554 736.771 650.04 730.475 650.04V651.04V652.04C737.406 652.04 742.77 649.246 746.431 643.669L745.595 643.12ZM730.475 651.04V650.04C725.148 650.04 720.632 648.125 716.872 644.262L716.155 644.96L715.439 645.658C719.572 649.902 724.602 652.04 730.475 652.04V651.04ZM716.155 644.96L716.876 644.267C713.115 640.353 711.235 635.617 711.235 630H710.235H709.235C709.235 636.116 711.303 641.354 715.434 645.653L716.155 644.96ZM710.235 630H711.235C711.235 624.383 713.114 619.677 716.872 615.818L716.155 615.12L715.439 614.422C711.303 618.67 709.235 623.883 709.235 630H710.235ZM716.155 615.12L716.876 615.813C720.638 611.899 725.153 609.96 730.475 609.96V608.96V607.96C724.598 607.96 719.566 610.128 715.434 614.427L716.155 615.12ZM730.475 608.96V609.96C736.771 609.96 741.488 612.446 744.759 617.429L745.595 616.88L746.431 616.331C742.77 610.754 737.406 607.96 730.475 607.96V608.96ZM745.595 616.88H746.595V594H745.595H744.595V616.88H745.595ZM731.355 644.32V645.32C735.658 645.32 739.304 643.866 742.222 640.947L741.515 640.24L740.808 639.533C738.287 642.054 735.159 643.32 731.355 643.32V644.32ZM741.515 640.24L742.229 640.94C745.141 637.971 746.595 634.303 746.595 630H745.595H744.595C744.595 633.804 743.329 636.962 740.801 639.54L741.515 640.24ZM745.595 630H746.595C746.595 625.697 745.141 622.051 742.222 619.133L741.515 619.84L740.808 620.547C743.33 623.069 744.595 626.196 744.595 630H745.595ZM741.515 619.84L742.229 619.14C739.312 616.166 735.664 614.68 731.355 614.68V615.68V616.68C735.153 616.68 738.278 617.968 740.801 620.54L741.515 619.84ZM731.355 615.68V614.68C727.096 614.68 723.476 616.168 720.561 619.14L721.275 619.84L721.989 620.54C724.515 617.965 727.615 616.68 731.355 616.68V615.68ZM721.275 619.84L720.568 619.133C717.65 622.051 716.195 625.697 716.195 630H717.195H718.195C718.195 626.196 719.461 623.069 721.982 620.547L721.275 619.84ZM717.195 630H716.195C716.195 634.303 717.649 637.971 720.561 640.94L721.275 640.24L721.989 639.54C719.461 636.962 718.195 633.804 718.195 630H717.195ZM721.275 640.24L720.568 640.947C723.484 643.863 727.102 645.32 731.355 645.32V644.32V643.32C727.609 643.32 724.507 642.057 721.982 639.533L721.275 640.24ZM791.02 610V609H790.322L790.082 609.655L791.02 610ZM798.46 610L799.394 610.359L799.916 609H798.46V610ZM782.14 652.48L781.207 652.121L781.204 652.128L782.14 652.48ZM774.94 662.8L774.336 662.003L774.328 662.009L774.321 662.015L774.94 662.8ZM764.38 666H763.38V666.936L764.314 666.998L764.38 666ZM764.38 659.52L764.456 658.523L763.38 658.441V659.52H764.38ZM775.18 651.36L774.277 650.932L774.262 650.962L774.25 650.993L775.18 651.36ZM775.9 649.84L776.804 650.268L776.999 649.856L776.816 649.439L775.9 649.84ZM758.46 610V609H756.931L757.544 610.401L758.46 610ZM765.9 610L766.818 609.602L766.557 609H765.9V610ZM779.5 641.36L778.583 641.758L779.577 644.051L780.439 641.705L779.5 641.36ZM791.02 610V611H798.46V610V609H791.02V610ZM798.46 610L797.527 609.641L781.207 652.121L782.14 652.48L783.074 652.839L799.394 610.359L798.46 610ZM782.14 652.48L781.204 652.128C779.548 656.528 777.246 659.796 774.336 662.003L774.94 662.8L775.545 663.597C778.821 661.111 781.319 657.499 783.076 652.832L782.14 652.48ZM774.94 662.8L774.321 662.015C771.482 664.256 768.209 665.253 764.447 665.002L764.38 666L764.314 666.998C768.551 667.28 772.318 666.144 775.56 663.585L774.94 662.8ZM764.38 666H765.38V659.52H764.38H763.38V666H764.38ZM764.38 659.52L764.304 660.517C766.977 660.72 769.351 660.079 771.363 658.558C773.356 657.052 774.921 654.742 776.111 651.727L775.18 651.36L774.25 650.993C773.146 653.792 771.765 655.748 770.157 656.962C768.57 658.161 766.69 658.693 764.456 658.523L764.38 659.52ZM775.18 651.36L776.084 651.788L776.804 650.268L775.9 649.84L774.997 649.412L774.277 650.932L775.18 651.36ZM775.9 649.84L776.816 649.439L759.376 609.599L758.46 610L757.544 610.401L774.984 650.241L775.9 649.84ZM758.46 610V611H765.9V610V609H758.46V610ZM765.9 610L764.983 610.398L778.583 641.758L779.5 641.36L780.418 640.962L766.818 609.602L765.9 610ZM779.5 641.36L780.439 641.705L791.959 610.345L791.02 610L790.082 609.655L778.562 641.015L779.5 641.36Z" fill="#002B46" mask="url(#path-9-outside-1_51_8)"/>
</svg>
